STARTFONT 2.1
COMMENT
COMMENT Converted from OpenType font "Q:\font stuff\winfont\ZapfinoExtraLT-Four.otf" by "otf2bdf 3.0".
COMMENT
FONT -FreeType-Zapfino Extra LT Four-Medium-R-Normal--52-520-72-72-P-265-ISO10646-1
SIZE 52 72 72
FONTBOUNDINGBOX 113 71 -35 -27
STARTPROPERTIES 19
FOUNDRY "FreeType"
FAMILY_NAME "Zapfino Extra LT Four"
WEIGHT_NAME "Medium"
SLANT "R"
SETWIDTH_NAME "Normal"
ADD_STYLE_NAME ""
PIXEL_SIZE 52
POINT_SIZE 520
RESOLUTION_X 72
RESOLUTION_Y 72
SPACING "P"
AVERAGE_WIDTH 265
CHARSET_REGISTRY "ISO10646"
CHARSET_ENCODING "1"
FONT_ASCENT 35
FONT_DESCENT 25
COPYRIGHT "Copyright (c) 2003 Linotype Library GmbH, www.linotype.com. All rights reserved. This software may not be reproduced, used, displayed, modified, disclosed or transferred without the express written approval of Linotype Library GmbH. Zapfino is a trademark of Heidelberger Druckmaschinen AG, exclusively licensed through Linotype Library GmbH, and may be registered in certain jurisdictions. The typeface is original artwork of Hermann Zapf. The design may be protected in certain jurisdictions."
_OTF_FONTFILE "Q:\font stuff\winfont\ZapfinoExtraLT-Four.otf"
_OTF_PSNAME "ZapfinoExtraLT-Four"
ENDPROPERTIES
CHARS 371
STARTCHAR 000D
ENCODING 13
SWIDTH 0 0
DWIDTH 0 0
BBX 0 0 0 0
BITMAP
ENDCHAR
STARTCHAR 0020
ENCODING 32
SWIDTH 192 0
DWIDTH 10 0
BBX 0 0 0 0
BITMAP
ENDCHAR
STARTCHAR 0021
ENCODING 33
SWIDTH 211 0
DWIDTH 11 0
BBX 12 21 5 -1
BITMAP
0070
00E0
00C0
0180
0100
0300
0200
0600
0400
0400
0800
0800
1000
1000
2000
2000
0000
0000
4000
E000
C000
ENDCHAR
STARTCHAR 0022
ENCODING 34
SWIDTH 326 0
DWIDTH 17 0
BBX 14 13 8 11
BITMAP
00CC
0198
0130
0330
0660
0440
0880
0980
1100
2200
4400
4400
8800
ENDCHAR
STARTCHAR 0023
ENCODING 35
SWIDTH 326 0
DWIDTH 17 0
BBX 17 22 4 1
BITMAP
000080
000900
001100
002200
002400
004400
01FE00
03FC00
011000
012000
022000
044000
048000
1FF000
3FE000
110000
220000
240000
440000
480000
880000
800000
ENDCHAR
STARTCHAR 0024
ENCODING 36
SWIDTH 365 0
DWIDTH 19 0
BBX 21 36 1 -11
BITMAP
000008
000010
000010
000320
000FE0
0030C0
004060
0040E0
008140
008100
008200
01C400
01F400
007E00
000F80
0013C0
0021C0
0020C0
0040C0
0040C0
008080
008180
010100
810200
420400
640800
3FF000
0F0000
080000
100000
100000
100000
200000
200000
400000
400000
ENDCHAR
STARTCHAR 0025
ENCODING 37
SWIDTH 615 0
DWIDTH 32 0
BBX 27 27 5 -5
BITMAP
0023F000
003FB800
00400800
008C0800
010C1000
02081000
02082000
06104000
06108000
06208000
06C10000
01020000
00040400
00080FE0
00102600
0020C600
00238600
00448400
00990400
01210800
02C30800
05031000
0E01E000
18000000
30000000
60000000
80000000
ENDCHAR
STARTCHAR 0026
ENCODING 38
SWIDTH 576 0
DWIDTH 30 0
BBX 25 24 3 -1
BITMAP
00006000
0001B000
00021000
00041000
00082000
00084000
00088000
00130180
001C0080
00F00100
03100100
0C100600
1010FC00
30334000
60342000
60382000
C0102000
C0182000
E0184000
E0188000
601D0000
300E0000
1C161800
03E1E000
ENDCHAR
STARTCHAR 0027
ENCODING 39
SWIDTH 211 0
DWIDTH 11 0
BBX 8 11 9 13
BITMAP
03
06
04
0C
18
10
30
20
40
40
80
ENDCHAR
STARTCHAR 0028
ENCODING 40
SWIDTH 365 0
DWIDTH 19 0
BBX 18 28 5 -2
BITMAP
000040
000180
000200
000400
001000
003000
006000
00C000
018000
010000
030000
060000
060000
0C0000
180000
180000
300000
300000
600000
600000
600000
C00000
C00000
C00000
C00000
C00000
400000
400000
ENDCHAR
STARTCHAR 0029
ENCODING 41
SWIDTH 403 0
DWIDTH 21 0
BBX 18 28 6 -1
BITMAP
000080
000040
000040
000040
000040
000040
0000C0
0000C0
000180
000180
000180
000300
000300
000600
000E00
000C00
001800
001800
003000
006000
004000
008000
010000
020000
040000
080000
300000
C00000
ENDCHAR
STARTCHAR 002A
ENCODING 42
SWIDTH 250 0
DWIDTH 13 0
BBX 9 9 9 12
BITMAP
0200
2400
2400
1800
FF80
1800
2400
2200
2000
ENDCHAR
STARTCHAR 002B
ENCODING 43
SWIDTH 403 0
DWIDTH 21 0
BBX 11 11 7 0
BITMAP
0180
0100
0300
0200
0400
FFE0
0800
1800
1000
3000
2000
ENDCHAR
STARTCHAR 002C
ENCODING 44
SWIDTH 211 0
DWIDTH 11 0
BBX 10 12 -1 -6
BITMAP
0040
00C0
0180
0300
0200
0400
0800
1000
3000
2000
4000
8000
ENDCHAR
STARTCHAR 002D
ENCODING 45
SWIDTH 307 0
DWIDTH 16 0
BBX 7 1 8 7
BITMAP
FE
ENDCHAR
STARTCHAR 002E
ENCODING 46
SWIDTH 230 0
DWIDTH 12 0
BBX 3 3 5 0
BITMAP
60
E0
C0
ENDCHAR
STARTCHAR 002F
ENCODING 47
SWIDTH 365 0
DWIDTH 19 0
BBX 17 36 5 -8
BITMAP
000080
000080
000100
000100
000200
000200
000400
000400
000400
000800
000800
001000
001000
002000
002000
004000
004000
008000
008000
010000
010000
030000
020000
020000
040000
040000
080000
080000
100000
100000
200000
200000
600000
400000
400000
800000
ENDCHAR
STARTCHAR 0030
ENCODING 48
SWIDTH 307 0
DWIDTH 16 0
BBX 12 13 3 0
BITMAP
00E0
0770
0830
1030
2030
6030
4030
C020
C060
C040
C080
E300
7C00
ENDCHAR
STARTCHAR 0031
ENCODING 49
SWIDTH 288 0
DWIDTH 15 0
BBX 13 12 2 0
BITMAP
0FF8
0030
0030
0060
00C0
00C0
0180
0180
0300
0700
0600
FFE0
ENDCHAR
STARTCHAR 0032
ENCODING 50
SWIDTH 307 0
DWIDTH 16 0
BBX 11 12 2 0
BITMAP
07C0
00E0
0060
0060
00C0
0080
0100
0600
0800
1000
3800
FF00
ENDCHAR
STARTCHAR 0033
ENCODING 51
SWIDTH 250 0
DWIDTH 13 0
BBX 17 22 -7 -10
BITMAP
000F00
000180
000180
000180
000300
000200
000F00
000380
000180
000180
000180
000100
000100
000200
000200
000400
000800
001000
802000
40C000
7F0000
3C0000
ENDCHAR
STARTCHAR 0034
ENCODING 52
SWIDTH 442 0
DWIDTH 23 0
BBX 25 22 -2 -8
BITMAP
00006000
0000E000
00006080
00006300
0000C400
00018800
00031000
00042000
00086000
0030C000
00C08000
01018000
06030000
FBFEFF80
000C0080
000C0000
00180000
00180000
00300000
00300000
00300000
00100000
ENDCHAR
STARTCHAR 0035
ENCODING 53
SWIDTH 288 0
DWIDTH 15 0
BBX 21 22 -3 -9
BITMAP
000618
000FF0
001000
002000
004000
004000
00C000
00E000
00F000
007800
003800
001800
001800
001800
001000
001000
002000
004000
00C000
838000
FE0000
780000
ENDCHAR
STARTCHAR 0036
ENCODING 54
SWIDTH 346 0
DWIDTH 18 0
BBX 24 25 4 0
BITMAP
00003E
0000C3
000301
000C00
001000
002000
004000
008000
010000
020000
040000
040000
080000
11F000
123800
301800
601800
601800
601000
C03000
C02000
C04000
C08000
E10000
7E0000
ENDCHAR
STARTCHAR 0037
ENCODING 55
SWIDTH 326 0
DWIDTH 17 0
BBX 16 22 4 -9
BITMAP
0001
0802
1F04
1FF8
4010
4020
8040
0080
0100
0200
0400
0800
0800
1000
2000
2000
4000
4000
C000
C000
E000
F000
ENDCHAR
STARTCHAR 0038
ENCODING 56
SWIDTH 326 0
DWIDTH 17 0
BBX 21 26 3 0
BITMAP
000010
000018
000018
000018
000710
000830
001020
002040
006080
006100
006600
007800
007000
00B800
031800
041C00
080C00
100C00
200C00
400800
400800
C01000
C02000
E04000
718000
3E0000
ENDCHAR
STARTCHAR 0039
ENCODING 57
SWIDTH 326 0
DWIDTH 17 0
BBX 21 21 -5 -9
BITMAP
0001F0
000238
000C18
000818
001018
003018
002018
006030
006030
006060
006060
0030C0
000C80
000180
000300
000600
000C00
003000
006000
838000
7C0000
ENDCHAR
STARTCHAR 003A
ENCODING 58
SWIDTH 230 0
DWIDTH 12 0
BBX 8 12 4 -1
BITMAP
01
07
07
06
00
00
00
00
00
70
60
E0
ENDCHAR
STARTCHAR 003B
ENCODING 59
SWIDTH 230 0
DWIDTH 12 0
BBX 13 18 -1 -7
BITMAP
0008
0038
0038
0020
0000
0000
0000
0080
00C0
0180
0300
0600
0C00
0800
1000
2000
4000
8000
ENDCHAR
STARTCHAR 003C
ENCODING 60
SWIDTH 403 0
DWIDTH 21 0
BBX 15 10 6 2
BITMAP
0002
001E
00F0
0700
3800
E000
3800
0700
01C0
0060
ENDCHAR
STARTCHAR 003D
ENCODING 61
SWIDTH 403 0
DWIDTH 21 0
BBX 12 5 7 4
BITMAP
3FF0
0000
0000
0000
FFE0
ENDCHAR
STARTCHAR 003E
ENCODING 62
SWIDTH 403 0
DWIDTH 21 0
BBX 14 9 6 2
BITMAP
0800
0E00
01C0
0038
001C
00E0
0700
7800
C000
ENDCHAR
STARTCHAR 003F
ENCODING 63
SWIDTH 269 0
DWIDTH 14 0
BBX 16 24 5 2
BITMAP
0060
007C
001E
0007
0003
0003
0003
0002
0002
0004
0008
0030
0040
0180
0200
0400
0800
0C00
0C00
0000
0000
6000
E000
6000
ENDCHAR
STARTCHAR 0040
ENCODING 64
SWIDTH 576 0
DWIDTH 30 0
BBX 30 27 4 -3
BITMAP
00001F00
0001E0E0
00060030
00180018
00600008
00800008
0100000C
0200F80C
04031008
04063008
080C6018
1018E010
30114010
2032C020
6022C040
60648080
60688100
6070C200
C0007C00
E0000000
60000400
60000800
70001000
30002000
1800C000
0E030000
01FC0000
ENDCHAR
STARTCHAR 0041
ENCODING 65
SWIDTH 730 0
DWIDTH 38 0
BBX 39 33 3 -2
BITMAP
0000000002
0000000002
00000007FA
0000003FFE
000001F00E
0000078006
00000C000C
000030001C
0000C00018
0001000030
0006000060
000C0000E0
00100001C0
0060000780
00C0000780
0180000B00
0300001600
0600002600
0C0000CC00
1800011C00
1800021800
3000043800
7000083000
6000107000
6000606000
E00180E000
E00200C000
E01C01C002
F8E001C004
3F0001C018
000001C020
000001E0C0
0000007F00
ENDCHAR
STARTCHAR 0042
ENCODING 66
SWIDTH 730 0
DWIDTH 38 0
BBX 37 39 1 -2
BITMAP
0000000008
0000000030
0000000040
0000000080
0000000100
0000000300
0000000200
0000000400
000007FFC0
0000FFFFF0
0007E010F8
001C002038
0070002018
00C0004010
0180004020
0100008040
0200010080
0200010100
0200020200
0000020400
0000040C00
0000040E00
0000080F80
00000807C0
00001001F0
00001000F0
0000200038
0000400038
0000800018
0000800010
0001000010
0002000020
0004000040
0008000080
0030000100
01C0000600
7FFFFFF800
7FFFFF8000
FFFF800000
ENDCHAR
STARTCHAR 0043
ENCODING 67
SWIDTH 615 0
DWIDTH 32 0
BBX 34 32 3 0
BITMAP
00000000C0
0000000180
0000000300
000007F200
0000381E00
0000E00C00
0003800C00
0006000800
001C001800
0038001000
0070003000
00E0003000
01C0006000
038000C000
0700000000
0E00000000
1E00000000
1C00000000
3800000000
7800000000
7000000000
7000000000
F000000000
E000000000
E000000000
E000000000
E000000000
E000007C00
6000038400
70001C0400
3800E00400
079F000000
ENDCHAR
STARTCHAR 0044
ENCODING 68
SWIDTH 884 0
DWIDTH 46 0
BBX 46 37 2 1
BITMAP
000000001000
000000006000
00000000C000
000000018000
000000030000
000000030000
000000060000
000000060000
000003FFF000
00003C0C1E00
0001C01C0380
0007001801E0
000C00380070
001800300070
003000700038
006000600038
006000E0001C
00C000C0001C
004001C0001C
00000180001C
00000300001C
00000300001C
00000600001C
00000600001C
00000C000038
100008000038
380018000030
3C0030000070
7E0060000060
4F00400000E0
4780800001C0
C3C100000180
C1E200000700
E07400000C00
E03C00003000
702FC000C000
3FC07FFF0000
ENDCHAR
STARTCHAR 0045
ENCODING 69
SWIDTH 788 0
DWIDTH 41 0
BBX 43 33 0 0
BITMAP
000000080000
000000100000
000000200000
000003FFFC00
00003FFFF800
0000F0400000
000300800000
000401000000
001801000000
001002000000
002004000000
006004000000
004008000000
00C008000000
00C010000000
00C020000000
00C07FFF0000
00407FE00000
000080000000
000080000020
000100000020
000200000020
000400000020
000800000040
3FF000000040
403C00000040
C04F00000080
C083C0000100
E100F0000300
7E003E000600
00000FE03800
000003FFF000
0000007F8000
ENDCHAR
STARTCHAR 0046
ENCODING 70
SWIDTH 461 0
DWIDTH 24 0
BBX 44 32 -2 -3
BITMAP
001FF0001FF0
007FFFC0E070
00FFFFFFFFC0
01C000020000
030000040000
0400000C0000
040000080000
080000100000
080000300000
000000600000
000000600000
000000C00000
000001C00000
000001800000
000003000000
0001FFFFE000
000306000000
000406000000
00080C000000
00000C000000
000018000000
000038000000
000030000000
000060000000
000040000000
0000C0000000
000180000000
800300000000
800400000000
C00800000000
703000000000
1FC000000000
ENDCHAR
STARTCHAR 0047
ENCODING 71
SWIDTH 538 0
DWIDTH 28 0
BBX 46 43 -10 -13
BITMAP
000000001FE0
00000001E038
000000060004
000000180004
000000600000
000000800000
000001000000
000006000000
00000C000000
000018000000
0000380000E0
0000300001A0
000070000340
000060000640
0000E0000C80
0000E0001D00
0000E0003A00
0000E0003400
0000E0007800
000070006000
00007000C000
00003C07C000
000007F98000
000000030000
000000030000
000000060000
000000040000
0000000C0000
000000080000
000000100000
000000300000
000000200000
000000400000
400000800000
400001000000
C00002000000
C00004000000
E00008000000
E00010000000
700020000000
7800C0000000
3F0300000000
0FFC00000000
ENDCHAR
STARTCHAR 0048
ENCODING 72
SWIDTH 769 0
DWIDTH 40 0
BBX 47 31 1 -1
BITMAP
00000002001E
000003FE0036
00007FFC0066
0000C00400C6
000200080184
00040008010C
00040010020C
000800100418
000800200C10
000800200860
000800401080
000800401300
000C00803C00
000000804000
00000103C000
0000013C8000
000003C08000
0000FE018000
001F04010000
01E008030000
070008030000
080010030000
100020020000
200040060000
400080060000
400100060000
C00600060000
E01C00070000
FFF000070000
7FE000038300
3F000001FC00
ENDCHAR
STARTCHAR 0049
ENCODING 73
SWIDTH 365 0
DWIDTH 19 0
BBX 34 31 -1 0
BITMAP
00000001C0
00000006C0
0000000880
0000001100
0000001E00
000000E000
0000072000
0000384000
0000C0C000
0001808000
0007018000
0006030000
000C030000
000C060000
000C060000
00040C0000
00001C0000
0000180000
0000380000
0000300000
0000600000
0000E00000
0000C00000
0001800000
0003000000
0002000000
0004000000
0008000000
C030000000
FCC0000000
FF00000000
ENDCHAR
STARTCHAR 004A
ENCODING 74
SWIDTH 288 0
DWIDTH 15 0
BBX 34 41 -8 -8
BITMAP
0000000040
0000000180
0000000300
0000200700
0000200E00
0000703E00
00007FCC00
00003E0C00
0000001800
0000001800
0000003000
0000003000
0000006000
0000006000
000000C000
000000C000
0000018000
0000018000
0000030000
0000020000
0000020000
0000040000
0000040000
0000081C00
000009E000
00001E0000
0000700000
0000600000
0000400000
0000C00000
0000800000
0001000000
0003000000
0002000000
0004000000
0008000000
8010000000
C020000000
E0C0000000
FF80000000
3E00000000
ENDCHAR
STARTCHAR 004B
ENCODING 75
SWIDTH 615 0
DWIDTH 32 0
BBX 56 33 -8 -3
BITMAP
000000408000FE
00000041000703
000000E1001801
0000007E006001
00000002018000
00000004060000
00000004080000
00000008100000
00000008600000
00000010800000
00000011000000
00000026000000
00000028000000
00000050000000
00000060000000
00000040000000
000000E0000000
00000160000000
00000260000000
00000220000000
00000420000000
00000830000000
00000830000000
00001010000000
00002018000000
00004008000000
8000800C000000
80010006000000
C0020006000000
E0040003801000
78180000C06000
3FE000003F8000
1F800000000000
ENDCHAR
STARTCHAR 004C
ENCODING 76
SWIDTH 961 0
DWIDTH 50 0
BBX 48 34 2 -6
BITMAP
000000003F00
00000000C380
0000000101C0
0000000600C0
0000000C00C0
0000001800C0
0000003000C0
0000002000C0
000000400080
000000C00080
000000800100
000001000100
000003000200
000002000400
000004000800
000004001000
000008002000
000010004000
07E7D0018000
187870020000
20205C000000
40008E000000
400083000000
C00101C00000
C00200E00000
E00400700000
7008003C0000
3F70001E0000
1FC0000F8000
00000003C001
00000001F002
000000007E0C
000000003FF0
000000000FC0
ENDCHAR
STARTCHAR 004D
ENCODING 77
SWIDTH 1115 0
DWIDTH 58 0
BBX 59 37 6 -6
BITMAP
0000000000000780
0000000000001FC0
000000000000C1E0
00000000000100E0
00007F00000600E0
00038780000800E0
001C0380001000E0
00600380006000C0
01800300008000C0
06000301C1000180
08000307C2000100
10000208C4000200
2000063088000600
4000044090000400
C0000C80A0000800
C000090140001000
C0001E0180002000
C000180300004000
0000300300008000
0000200200010000
0000600400020000
0000C00800060000
00008008000C0000
0003001000180000
0007003000300000
000E006000600000
000C00C000C00000
001800C001C00000
0038018001800000
0070030003800000
0060030003000000
0000000007000000
0000000007000000
0000000007000000
0000000007803000
0000000003C1C000
0000000001FE0000
ENDCHAR
STARTCHAR 004E
ENCODING 78
SWIDTH 788 0
DWIDTH 41 0
BBX 46 35 2 -6
BITMAP
000000000070
0000000003FC
000000000C1C
00000000300C
00000000C00C
00000701000C
00003F02000C
0000C70C0008
000306100010
000406200020
00180C400020
002008800040
004009000080
008012000100
030014000200
060028000400
0C0050000800
080060001000
1800C0003000
300080006000
20018000C000
600300018000
600200030000
C00600060000
C00C000C0000
C01C000C0000
C01800180000
C03800380000
C03000300000
400000700000
400000700000
200000700000
200000780300
1000003C1C00
0E00001FE000
ENDCHAR
STARTCHAR 004F
ENCODING 79
SWIDTH 596 0
DWIDTH 31 0
BBX 33 29 3 0
BITMAP
000000FC00
0000070600
0000780300
0001B00180
0006600180
0018600180
0020C00180
0040C00180
0180C00100
0300400100
0600000100
0400000200
0C00000200
1800000400
3800000400
3000000800
7000001000
6000001000
6000002000
E000004000
E000008000
E000010000
E000020000
E000040000
E000180000
7000200000
7800C00000
3E07000000
0FF8000000
ENDCHAR
STARTCHAR 0050
ENCODING 80
SWIDTH 576 0
DWIDTH 30 0
BBX 39 40 -3 -12
BITMAP
00000007F0
000000183C
000000201C
000000C00E
000F01000E
003382000E
00C184000E
010188000E
000190000E
0001A0000C
000140001C
0001800018
0003800018
0003000030
0002000030
0002000060
0004000040
00040000C0
0008000180
0018000100
0028000200
0030000400
0050000800
00A0003000
00A0004000
0140038000
0247FC0000
028FC00000
0480000000
0500000000
0900000000
0A00000000
1200000000
1400000000
2800000000
2800000000
5000000000
5000000000
E000000000
C000000000
ENDCHAR
STARTCHAR 0051
ENCODING 81
SWIDTH 711 0
DWIDTH 37 0
BBX 36 34 3 -5
BITMAP
00000FF800
0000703E00
0001800F00
0006000700
0008000380
0030000380
0040000180
0080000180
0100000180
0200000180
0200000100
0400000100
0800000300
0800000200
0000000200
0600000400
1E00000400
2600000800
4700001000
C300002000
C380004000
C180008000
C1C0010000
E0C0020000
60600C0000
3070100010
1C30E00010
03DF000020
003C000020
000E000040
0007000180
0003C00200
0000F81C00
00001FE000
ENDCHAR
STARTCHAR 0052
ENCODING 82
SWIDTH 711 0
DWIDTH 37 0
BBX 57 41 -1 -8
BITMAP
0000000400000000
0000000800000000
0000000800000000
000001FFC0000000
00000E10F8000000
000030203C000000
000060201E000000
000080400E000000
000100400E000000
000200800E000000
000600800E000000
000401000E000000
000C01001C000000
0008020018000000
0008020030000000
0018040060000000
00180401C0000000
001808FE00000000
001808E000000000
000C106000000000
000C107000000000
0006207000000000
0007403800000000
0003403800000000
0001801800000000
0001801C00000000
0002800E00000000
0004800E00000000
0018800700000000
0061000700000000
0383000380000000
FFFC0003C0000000
00000001E0000000
00000000F0000000
0000000078000000
000000003C000000
000000001E000000
000000000F000080
0000000007C00300
0000000000F81C00
00000000001FE000
ENDCHAR
STARTCHAR 0053
ENCODING 83
SWIDTH 576 0
DWIDTH 30 0
BBX 31 33 1 -5
BITMAP
000001E0
00000FFC
0000100E
00006006
00008002
00008002
00010002
00010000
00010000
00010000
00018000
0001C000
0001E000
0000F000
00007C00
00003E00
00000F80
000007C0
020001C0
040000C0
04000060
08000060
08000040
10000040
30000040
30000040
50000080
50000100
58000100
9C000600
0E001800
07FBE000
03FF0000
ENDCHAR
STARTCHAR 0054
ENCODING 84
SWIDTH 519 0
DWIDTH 27 0
BBX 52 36 1 -4
BITMAP
00000000040000
00000000080030
00000000080030
00000000100020
00001FF0100040
0000FFFFA00180
0003FFFFFFFE00
0007F000400000
000F0000800000
001C0000800000
00380001000000
00300001000000
00600002000000
00400002000000
00400004000000
00800004000000
00800008000000
00800008000000
00000010000000
00000020000000
00000020000000
00000040000000
00000040000000
00000080000000
20000100000000
40000100000000
40000200000000
40000400000000
C0000800000000
C0000800000000
E0001000000000
F0002000000000
78004000000000
7E038000000000
3FFE0000000000
0FF00000000000
ENDCHAR
STARTCHAR 0055
ENCODING 85
SWIDTH 865 0
DWIDTH 45 0
BBX 48 33 2 -4
BITMAP
00001FC00003
000061E00006
000180E00004
000600600008
000800600018
003000400010
004000C00020
008000C00040
010001800080
020001000100
040003000300
040002000200
080004000E00
08000C001400
100008002400
100010004800
200030008800
200020011000
600040021000
4000C0043000
400180083000
400180302000
C00300406000
C00300806008
C00703006008
C00704006010
C007F8006010
6003C0007020
600000007040
300000003880
180000001F00
0C0000000000
038000000000
ENDCHAR
STARTCHAR 0056
ENCODING 86
SWIDTH 673 0
DWIDTH 35 0
BBX 50 42 4 -6
BITMAP
0000000001FC00
00000000000F00
00000000000380
00000000000380
000000000001C0
000000000001C0
000000000001C0
0000003F8001C0
000007FF8001C0
00003FFF000180
0001FFFE000380
0007C000000300
001C0008000600
00600010000E00
00800010000C00
01000020001800
02000020002000
04000040004000
08000040018000
10000080030000
30000080040000
20000100180000
60000100200000
60000200C00000
C0000201000000
C0000406000000
C0000418000000
C0000820000000
000008C0000000
00001300000000
00001400000000
00002800000000
00003000000000
00004000000000
0000C000000000
00038000000000
00048000000000
000D0000000000
00190000000000
00120000000000
00340000000000
00380000000000
ENDCHAR
STARTCHAR 0057
ENCODING 87
SWIDTH 807 0
DWIDTH 42 0
BBX 77 40 1 -6
BITMAP
00000000000000001F80
0000000000000000FFE0
0000000000000003FFF0
000000000004000F00F0
00000000000800180038
00000000401800600018
00000003803800800018
0000001E00F003000018
000000E3013004000010
00000306027008000010
00000C06047010000020
0000700E086020000000
0001800C1060C0000000
0006001C20C100000000
0008001840C200000000
0030003880C400000000
00400031018800000000
00800062018800000000
03000064019000000000
06000048032000000000
0C0000D0034000000000
1C0000A0028000000000
18000140070000000000
30000140050000000000
70000280060000000000
600003000C0000000000
600006000C0000000000
C0000C00080000000000
C0000800100000000000
C0001800300000000000
C0003000200000000000
C0006000600000000000
C0006000C00000000000
4000C000800000000000
60000000000000000000
20000000000000000000
10000000000000000000
08000000000000000000
06000000000000000000
01000000000000000000
ENDCHAR
STARTCHAR 0058
ENCODING 88
SWIDTH 634 0
DWIDTH 33 0
BBX 41 42 2 -14
BITMAP
00003E000380
0000FE000780
000107001C80
000203003000
000403004000
000803018000
001003020000
0020030C0000
002003100000
000002200000
000002400000
000007800000
000006000000
000004000000
00001C000000
00002C000000
00004C000000
000088000000
000108000000
000618000000
000818000000
001010000000
002010000000
004030000000
008030004000
010030008000
020038030000
02003C1C0000
04001FE00000
080000000000
180000000000
100000000000
200000000000
600000000000
600000000000
400000000000
400000000000
C00000000000
400000000000
400000000000
200000000000
100000000000
ENDCHAR
STARTCHAR 0059
ENCODING 89
SWIDTH 557 0
DWIDTH 29 0
BBX 48 47 -5 -14
BITMAP
000000000007
000000000009
000000000011
000007800022
000018C00022
000020C00044
000040C00088
000080C00090
000101800110
000201800320
000401800240
000003000680
000007000D00
000006000A00
000006001C00
00000C001800
00000C003000
000018002000
000018006000
00001800C000
00003003C000
000030058000
000030198000
000030E30000
00001F030000
000000060000
000000040000
0000000C0000
000000080000
000000180000
000000300000
000000200000
000000600000
000000400000
000000800000
000000800000
000001000000
000002000000
800004000000
800008000000
800010000000
C00020000000
C00040000000
600080000000
700300000000
3C0C00000000
0FF000000000
ENDCHAR
STARTCHAR 005A
ENCODING 90
SWIDTH 538 0
DWIDTH 28 0
BBX 33 38 0 -9
BITMAP
003FFF0000
001FF0C000
001F002000
0000002000
0000002000
0000002000
0000004000
0000008000
0000008000
0000010000
0000020000
0000040000
0000FC0000
0007130000
000C610000
0018818000
003300C000
003C00C180
000000C600
000000D800
000000E000
000007C000
000039C000
0000C18000
0007038000
0018030000
0060060000
01800E0000
06000C0000
0800180000
3000300000
6000600000
4000C00000
8003000000
8006000000
8018000000
40E0000000
3F00000000
ENDCHAR
STARTCHAR 005B
ENCODING 91
SWIDTH 346 0
DWIDTH 18 0
BBX 22 30 1 -4
BITMAP
0001FC
000380
000300
000700
000600
000E00
000C00
001800
001800
003000
003000
006000
006000
00C000
00C000
018000
018000
030000
070000
060000
0E0000
0C0000
1C0000
180000
380000
300000
600000
E00000
EF0000
100000
ENDCHAR
STARTCHAR 005C
ENCODING 92
SWIDTH 365 0
DWIDTH 19 0
BBX 12 36 9 -8
BITMAP
8000
4000
4000
4000
2000
2000
2000
3000
1000
1000
1000
0800
0800
0800
0400
0400
0400
0200
0200
0200
0300
0100
0100
0100
0080
0080
0080
0040
0040
0040
0060
0020
0020
0020
0010
0010
ENDCHAR
STARTCHAR 005D
ENCODING 93
SWIDTH 346 0
DWIDTH 18 0
BBX 23 29 4 -4
BITMAP
0003FE
00000C
000018
000018
000030
000030
000060
000060
0000C0
0000C0
000180
000300
000300
000600
000600
000C00
000C00
001800
001800
003000
003000
006000
006000
00C000
01C000
018000
038000
030000
FF0000
ENDCHAR
STARTCHAR 005E
ENCODING 94
SWIDTH 403 0
DWIDTH 21 0
BBX 10 9 10 11
BITMAP
0040
00C0
0140
0240
0440
0840
1040
2040
C040
ENDCHAR
STARTCHAR 005F
ENCODING 95
SWIDTH 500 0
DWIDTH 26 0
BBX 25 1 0 -2
BITMAP
FFFFFF80
ENDCHAR
STARTCHAR 0060
ENCODING 96
SWIDTH 230 0
DWIDTH 12 0
BBX 3 6 5 15
BITMAP
80
80
40
40
40
20
ENDCHAR
STARTCHAR 0061
ENCODING 97
SWIDTH 269 0
DWIDTH 14 0
BBX 17 17 1 -3
BITMAP
000400
000800
003800
00D000
031000
062000
0C6000
18E000
314000
214080
628100
448200
D90400
E10400
010800
011000
01E000
ENDCHAR
STARTCHAR 0062
ENCODING 98
SWIDTH 230 0
DWIDTH 12 0
BBX 30 34 1 0
BITMAP
000001F0
00000608
00000804
00001004
00002004
00004000
00008000
00010000
00030000
00060000
00040000
000C0000
00180000
00100000
00300000
00600000
00600000
00C00000
00C00000
01800000
01000000
03000000
06600000
06E00000
0D600000
0E600000
1C400000
18400000
30800000
20800000
61000000
62000000
E4000000
F8000000
ENDCHAR
STARTCHAR 0063
ENCODING 99
SWIDTH 211 0
DWIDTH 11 0
BBX 11 12 2 0
BITMAP
00E0
0760
0840
1000
3000
2000
6020
4040
C080
C100
C600
7800
ENDCHAR
STARTCHAR 0064
ENCODING 100
SWIDTH 250 0
DWIDTH 13 0
BBX 18 35 1 0
BITMAP
07C000
187000
301800
201C00
600E00
400600
C00600
C00700
C00300
C00300
C00300
C00300
600300
600300
600300
200200
300200
100200
180600
080400
0C0400
040400
020800
010800
009000
01A000
026000
0C5FC0
184000
308000
610000
620000
C40000
C80000
F00000
ENDCHAR
STARTCHAR 0065
ENCODING 101
SWIDTH 250 0
DWIDTH 13 0
BBX 16 12 3 0
BITMAP
0380
0D80
1980
1101
327E
6580
6000
C000
C000
C000
C000
6000
ENDCHAR
STARTCHAR 0066
ENCODING 102
SWIDTH 192 0
DWIDTH 10 0
BBX 62 61 -29 -23
BITMAP
000000000000007C
00000000000003FC
0000000000000600
0000000000000800
0000000000001000
0000000000002000
0000000000004000
0000000000008000
0000000000010000
0000000000010000
0000000000020000
0000000000040000
0000000000040000
0000000000080000
0000000000180000
0000000000100000
0000000000300000
0000000000600000
0000000000600000
0000000000C00000
0000000000800000
0000000001800000
0000000001000000
0000000003000000
0000000006000000
0000000006000000
000000000C000000
00000003FFF80000
000000000C000000
0000000018000000
0000000038000000
0000000030000000
0000000070000000
0000000060000000
00000000C0000000
00000000C0000000
0000000180000000
0000000180000000
0000000300000000
0000000300000000
0000000600000000
0000000E00000000
0000000C00000000
0000001800000000
0000001800000000
0000003000000000
0000006000000000
0000004000000000
000000C000000000
0000018000000000
0000030000000000
0000020000000000
0000040000000000
0000080000000000
0000100000000000
0000600000000000
8000C00000000000
8001000000000000
4006000000000000
3038000000000000
1FC0000000000000
ENDCHAR
STARTCHAR 0067
ENCODING 103
SWIDTH 230 0
DWIDTH 12 0
BBX 29 31 -12 -21
BITMAP
000007F8
00001900
00002100
00004200
00008400
00018800
00011000
00032000
0003D000
00006000
00008000
00010000
00010000
00030000
00038000
0001C000
0001E000
0000F000
01007000
06003800
08001800
10001800
20001000
60001000
40002000
C0002000
C0004000
C0008000
E0030000
780C0000
1FF00000
ENDCHAR
STARTCHAR 0068
ENCODING 104
SWIDTH 230 0
DWIDTH 12 0
BBX 39 43 -4 -6
BITMAP
000000003E
00000000C6
0000000302
0000000402
0000001800
0000002000
0000004000
0000008000
0000010000
0000020000
0000020000
0000040000
0000080000
0000100000
0000100000
0000200000
0000400000
0000400000
0000800000
0001000000
0003000000
0002000000
0004000000
000C000000
0008000000
0010000000
0033000000
0027000000
007B000000
0062000000
00C6000000
0184000000
0104000000
030C000000
0208000000
0610000000
0430000000
0020000000
0040000000
0080000000
0300000000
0C00000000
F000000000
ENDCHAR
STARTCHAR 0069
ENCODING 105
SWIDTH 173 0
DWIDTH 9 0
BBX 12 19 2 0
BITMAP
0040
00C0
0080
0000
0000
0000
0000
0000
3E00
0C00
0800
1800
3010
2020
6040
4080
C100
C600
7800
ENDCHAR
STARTCHAR 006A
ENCODING 106
SWIDTH 153 0
DWIDTH 8 0
BBX 31 43 -18 -24
BITMAP
00000018
00000018
00000010
00000000
00000000
00000000
00000000
00000000
00000380
00000180
00000100
00000200
00000202
00000404
00000408
00000810
00000820
00001040
00001180
00001200
00002400
00006800
00007000
0000C000
00008000
00018000
00078000
000B0000
00330000
00460000
00860000
010C0000
060C0000
0C180000
18380000
30300000
20600000
40600000
80C00000
81800000
83000000
C6000000
78000000
ENDCHAR
STARTCHAR 006B
ENCODING 107
SWIDTH 269 0
DWIDTH 14 0
BBX 27 35 1 -4
BITMAP
000001E0
00000600
00001800
00002000
00004000
00008000
00010000
00020000
00020000
00040000
00080000
00100000
00100000
00200000
00200000
00400000
00800000
00800000
01000000
03000000
02780000
05980000
06100000
08200000
19C00000
1F800000
31800000
21000000
61000000
C3020000
42040000
06040000
06080000
06300000
03C00000
ENDCHAR
STARTCHAR 006C
ENCODING 108
SWIDTH 192 0
DWIDTH 10 0
BBX 28 34 2 0
BITMAP
000003E0
00000C30
00001020
00006000
00004000
00008000
00010000
00020000
00060000
00040000
00080000
00180000
00100000
00200000
00600000
00C00000
00800000
01800000
03000000
03000000
06000000
04000000
0C000000
08000000
18000000
30000000
30000000
60080000
60100000
60200000
C0400000
C0800000
C3000000
7C000000
ENDCHAR
STARTCHAR 006D
ENCODING 109
SWIDTH 365 0
DWIDTH 19 0
BBX 19 13 2 -2
BITMAP
040000
0C0000
08CE00
1BD600
34A400
39CC00
718C00
631800
E63820
C67040
007180
00F200
00FC00
ENDCHAR
STARTCHAR 006E
ENCODING 110
SWIDTH 250 0
DWIDTH 13 0
BBX 16 12 1 -2
BITMAP
0E60
05E0
0640
0C40
0880
1180
3101
2306
6208
4610
C660
8780
ENDCHAR
STARTCHAR 006F
ENCODING 111
SWIDTH 250 0
DWIDTH 13 0
BBX 18 12 2 0
BITMAP
01E040
0F2180
122200
122C00
225000
23E000
408000
C08000
C10000
C20000
C40000
780000
ENDCHAR
STARTCHAR 0070
ENCODING 112
SWIDTH 250 0
DWIDTH 13 0
BBX 35 36 -18 -23
BITMAP
0000003000
0000006000
0000006000
000000C000
0000008600
0000019E00
0000032400
000003CC00
0000071860
0000061980
00000C3600
00001BE800
0000300000
0000700000
0000A00000
0001200000
0002400000
0004800000
0008800000
0011000000
0061000000
00C2000000
0184000000
0104000000
0208000000
0408000000
0C10000000
1820000000
3020000000
2040000000
6080000000
4100000000
C200000000
C400000000
C800000000
7000000000
ENDCHAR
STARTCHAR 0071
ENCODING 113
SWIDTH 307 0
DWIDTH 16 0
BBX 25 38 -7 -24
BITMAP
00000800
00001000
0000FC00
00032C80
00044480
00084080
00108080
00318080
00230100
00650100
004A0200
00D20400
00E40800
00081000
00081000
00102000
00104000
00208000
00210000
00420000
00440000
00880000
00900000
01200000
02200000
02400000
04800000
05000000
0A000000
0C000000
18000000
30000000
30000000
60000000
40000000
C0000000
80000000
80000000
ENDCHAR
STARTCHAR 0072
ENCODING 114
SWIDTH 211 0
DWIDTH 11 0
BBX 13 12 2 -1
BITMAP
0010
7C60
0CC0
0F40
0CC0
08C0
1038
2000
6000
4000
C000
8000
ENDCHAR
STARTCHAR 0073
ENCODING 115
SWIDTH 211 0
DWIDTH 11 0
BBX 15 18 -2 -4
BITMAP
0002
000C
0008
0018
0038
0058
0098
0110
0230
0430
0820
1020
2060
C040
C0C0
C180
E300
7C00
ENDCHAR
STARTCHAR 0074
ENCODING 116
SWIDTH 211 0
DWIDTH 11 0
BBX 18 17 2 1
BITMAP
006000
004000
00C000
018000
010000
030000
3FFFC0
060000
090000
190000
110000
310000
610000
620000
C40000
C80000
700000
ENDCHAR
STARTCHAR 0075
ENCODING 117
SWIDTH 288 0
DWIDTH 15 0
BBX 17 12 2 0
BITMAP
0F0000
311800
C13000
023000
066000
0CE000
18C000
318080
678100
C90200
910400
A09800
ENDCHAR
STARTCHAR 0076
ENCODING 118
SWIDTH 250 0
DWIDTH 13 0
BBX 16 11 3 1
BITMAP
787F
1840
1840
1080
1100
3200
2400
2800
7000
6000
C000
ENDCHAR
STARTCHAR 0077
ENCODING 119
SWIDTH 307 0
DWIDTH 16 0
BBX 15 11 2 1
BITMAP
060E
0C06
0C06
1886
1B84
3584
6988
7188
E190
C1E0
81C0
ENDCHAR
STARTCHAR 0078
ENCODING 120
SWIDTH 288 0
DWIDTH 15 0
BBX 22 15 -4 -2
BITMAP
003C0C
003C30
003CC0
003900
003E00
001800
001000
007000
009010
013020
023040
043980
081E00
F00000
E00000
ENDCHAR
STARTCHAR 0079
ENCODING 121
SWIDTH 230 0
DWIDTH 12 0
BBX 55 43 -35 -27
BITMAP
0000000000000E
0000000000003E
00000000000042
00000000000080
00000000000100
00000000000200
0000000003C200
000000000CC400
00000000008800
00000000018800
00000000031000
00000000031000
00000000062000
00000000064000
000000000C4000
000000000C8000
00000000038000
00000000010000
00000000010000
00000000020000
00000000040000
00000000040000
00000000080000
00000000100000
00000000100000
00000000200000
00000000400000
00000000800000
00000000800000
00000001000000
00000002000000
80000004000000
80000008000000
80000010000000
80000020000000
80000040000000
C0000080000000
40000100000000
60000600000000
30000800000000
3C003000000000
0F81C000000000
03FE0000000000
ENDCHAR
STARTCHAR 007A
ENCODING 122
SWIDTH 230 0
DWIDTH 12 0
BBX 29 28 -16 -16
BITMAP
00000808
00000810
00001C20
00000FC0
00000080
00000300
00000400
00001F08
000001B0
000001C0
00000780
00001B00
0000E300
00030600
000C0600
00300C00
00C01800
03001000
04003000
08006000
3000C000
60018000
40020000
80040000
80180000
80600000
C1800000
7E000000
ENDCHAR
STARTCHAR 007B
ENCODING 123
SWIDTH 269 0
DWIDTH 14 0
BBX 20 32 3 -6
BITMAP
000030
0001C0
000700
000600
000C00
001800
001800
003000
002000
004000
00C000
008000
030000
2C0000
140000
020000
020000
040000
040000
080000
180000
100000
300000
200000
600000
C00000
C00000
C00000
C00000
C00000
400000
200000
ENDCHAR
STARTCHAR 007C
ENCODING 124
SWIDTH 230 0
DWIDTH 12 0
BBX 1 51 8 -12
BITMAP
80
80
80
80
80
80
80
80
80
80
80
80
80
80
80
80
80
80
80
80
80
80
80
80
80
80
80
80
80
80
80
80
80
80
80
80
80
80
80
80
80
80
80
80
80
80
80
80
80
80
80
ENDCHAR
STARTCHAR 007D
ENCODING 125
SWIDTH 269 0
DWIDTH 14 0
BBX 19 32 2 -6
BITMAP
000080
000040
000020
000020
000060
000060
0000C0
0000C0
000180
000300
000300
000600
000400
000400
000380
000400
000800
001000
003000
002000
006000
00C000
00C000
018000
018000
030000
060000
040000
080000
100000
600000
800000
ENDCHAR
STARTCHAR 007E
ENCODING 126
SWIDTH 403 0
DWIDTH 21 0
BBX 12 3 7 5
BITMAP
3810
DE10
83E0
ENDCHAR
STARTCHAR 00A0
ENCODING 160
SWIDTH 192 0
DWIDTH 10 0
BBX 0 0 0 0
BITMAP
ENDCHAR
STARTCHAR 00A1
ENCODING 161
SWIDTH 211 0
DWIDTH 11 0
BBX 12 21 1 -8
BITMAP
0070
0070
0020
0000
0000
0040
0080
0080
0100
0100
0100
0200
0200
0600
0400
0C00
0800
1800
3000
7000
C000
ENDCHAR
STARTCHAR 00A2
ENCODING 162
SWIDTH 365 0
DWIDTH 19 0
BBX 18 32 4 -7
BITMAP
000040
000080
000100
000100
000600
003F80
00C580
010800
020800
021000
042000
0C2000
184000
184000
308100
310200
310400
321800
722000
3CC000
1F0000
080000
080000
100000
100000
200000
200000
400000
400000
400000
800000
800000
ENDCHAR
STARTCHAR 00A3
ENCODING 163
SWIDTH 480 0
DWIDTH 25 0
BBX 24 24 0 -1
BITMAP
00001E
000067
000180
000200
000400
000400
000800
001000
001000
002000
00FFC0
034000
008000
008000
010000
020000
040000
0FC000
107000
201C00
400E02
800784
0003F8
000060
ENDCHAR
STARTCHAR 00A4
ENCODING 164
SWIDTH 500 0
DWIDTH 26 0
BBX 23 18 4 3
BITMAP
200002
103F04
08C0C8
070030
040010
040010
080010
080008
100008
100010
100010
100010
100020
080020
180060
240090
420308
81FC04
ENDCHAR
STARTCHAR 00A5
ENCODING 165
SWIDTH 442 0
DWIDTH 23 0
BBX 29 25 3 1
BITMAP
00000018
00000030
07C000C0
19F00180
60700200
80380400
00181000
00182000
00184000
00198000
00120000
00340000
00380000
07FF8000
00600000
00400000
0FFE0000
10800000
01800000
03000000
03000000
06000000
06000000
0C000000
FF800000
ENDCHAR
STARTCHAR 00A6
ENCODING 166
SWIDTH 230 0
DWIDTH 12 0
BBX 1 44 11 -9
BITMAP
80
80
80
80
80
80
80
80
80
80
80
80
80
80
80
80
80
80
00
00
00
00
00
00
00
00
80
80
80
80
80
80
80
80
80
80
80
80
80
80
80
80
80
80
ENDCHAR
STARTCHAR 00A7
ENCODING 167
SWIDTH 307 0
DWIDTH 16 0
BBX 19 25 -1 -3
BITMAP
0003E0
000420
000820
001000
001000
001000
007000
009800
008C00
008C00
018600
00C200
00E300
007100
003100
001A00
001A00
000C00
800C00
800800
800800
801000
C01000
706000
3F8000
ENDCHAR
STARTCHAR 00A8
ENCODING 168
SWIDTH 230 0
DWIDTH 12 0
BBX 6 3 3 16
BITMAP
44
CC
C8
ENDCHAR
STARTCHAR 00A9
ENCODING 169
SWIDTH 596 0
DWIDTH 31 0
BBX 26 24 4 -1
BITMAP
003FE000
00C01800
03000600
04000300
08078100
10186080
20603080
40803040
40802040
41000040
81000040
83000040
83000040
83000040
83000080
83800080
81804080
80E08100
407F0200
40000200
20000400
10000800
08803000
0779C000
ENDCHAR
STARTCHAR 00AA
ENCODING 170
SWIDTH 269 0
DWIDTH 14 0
BBX 13 14 4 8
BITMAP
0010
0030
0060
01E0
06C0
08C0
1180
3380
6500
6B00
D300
E308
0310
03E0
ENDCHAR
STARTCHAR 00AB
ENCODING 171
SWIDTH 326 0
DWIDTH 17 0
BBX 12 13 6 -1
BITMAP
0080
0110
0660
0880
1100
2200
4400
C600
4600
6200
6300
2300
3100
ENDCHAR
STARTCHAR 00AC
ENCODING 172
SWIDTH 403 0
DWIDTH 21 0
BBX 11 5 7 4
BITMAP
FFE0
0040
00C0
0080
0180
ENDCHAR
STARTCHAR 00AD
ENCODING 173
SWIDTH 307 0
DWIDTH 16 0
BBX 7 1 8 7
BITMAP
FE
ENDCHAR
STARTCHAR 00AE
ENCODING 174
SWIDTH 403 0
DWIDTH 21 0
BBX 16 16 8 9
BITMAP
03F8
0C06
31E2
4111
4311
8211
8661
8781
8D81
8882
9842
9064
8004
4018
3020
0FC0
ENDCHAR
STARTCHAR 00AF
ENCODING 175
SWIDTH 230 0
DWIDTH 12 0
BBX 5 1 4 16
BITMAP
F8
ENDCHAR
STARTCHAR 00B0
ENCODING 176
SWIDTH 230 0
DWIDTH 12 0
BBX 5 5 10 19
BITMAP
38
C8
88
88
50
ENDCHAR
STARTCHAR 00B1
ENCODING 177
SWIDTH 403 0
DWIDTH 21 0
BBX 14 12 4 0
BITMAP
0018
0030
0020
0040
0FFC
0080
0080
0100
0300
0100
0000
FFE0
ENDCHAR
STARTCHAR 00B2
ENCODING 178
SWIDTH 250 0
DWIDTH 13 0
BBX 11 10 7 13
BITMAP
0F80
0180
0180
0100
0200
0C00
1000
3000
FE00
07E0
ENDCHAR
STARTCHAR 00B3
ENCODING 179
SWIDTH 250 0
DWIDTH 13 0
BBX 10 11 7 12
BITMAP
03C0
0040
0040
0180
0200
0300
0300
0180
0100
8200
7C00
ENDCHAR
STARTCHAR 00B4
ENCODING 180
SWIDTH 230 0
DWIDTH 12 0
BBX 9 7 1 14
BITMAP
0080
0100
0600
0800
1000
6000
8000
ENDCHAR
STARTCHAR 00B5
ENCODING 181
SWIDTH 403 0
DWIDTH 21 0
BBX 19 24 0 -12
BITMAP
001060
0020C0
006080
004180
00C100
008300
018600
030E20
051440
072480
0BC700
080000
100000
100000
200000
200000
400000
400000
400000
800000
800000
800000
800000
400000
ENDCHAR
STARTCHAR 00B6
ENCODING 182
SWIDTH 500 0
DWIDTH 26 0
BBX 19 29 12 -4
BITMAP
000060
000060
0001C0
003E00
01F800
07F800
0FF000
1FF000
3FE000
3FE000
7FC000
7FC000
7F8000
7F8000
7F0000
7F0000
0A0000
040000
040000
080000
080000
100000
100000
200000
200000
400000
400000
800000
800000
ENDCHAR
STARTCHAR 00B7
ENCODING 183
SWIDTH 211 0
DWIDTH 11 0
BBX 3 3 7 9
BITMAP
60
E0
C0
ENDCHAR
STARTCHAR 00B8
ENCODING 184
SWIDTH 230 0
DWIDTH 12 0
BBX 5 7 3 -8
BITMAP
08
10
38
18
10
20
C0
ENDCHAR
STARTCHAR 00B9
ENCODING 185
SWIDTH 250 0
DWIDTH 13 0
BBX 9 10 8 13
BITMAP
0780
0180
0100
0300
0200
0600
0C00
0C00
1800
E700
ENDCHAR
STARTCHAR 00BA
ENCODING 186
SWIDTH 230 0
DWIDTH 12 0
BBX 9 11 5 8
BITMAP
0180
0380
0C80
1180
1180
2100
6100
4200
C200
C400
F800
ENDCHAR
STARTCHAR 00BB
ENCODING 187
SWIDTH 365 0
DWIDTH 19 0
BBX 12 13 5 -2
BITMAP
0880
18C0
0C60
0E60
0630
0330
0310
0220
0440
1980
2200
4400
8000
ENDCHAR
STARTCHAR 00BC
ENCODING 188
SWIDTH 596 0
DWIDTH 31 0
BBX 26 27 5 -3
BITMAP
00000040
00000080
00F00100
00300200
00200400
00600800
00401000
00C02000
01804000
01808000
03010000
1CE20000
00020000
00040800
00081800
00101900
00201600
00406400
00808800
01031800
020FFE00
04002000
08002000
18006000
10000000
20000000
C0000000
ENDCHAR
STARTCHAR 00BD
ENCODING 189
SWIDTH 596 0
DWIDTH 31 0
BBX 26 27 5 -3
BITMAP
00000040
00000080
00F00100
00300200
00200400
00600800
00401000
00C02000
01804000
01808000
03010000
1CE20000
00020000
00040000
00087800
00109800
00201800
00401000
00802000
01004000
02018000
04020000
0807C000
1819FE00
10000000
20000000
C0000000
ENDCHAR
STARTCHAR 00BE
ENCODING 190
SWIDTH 596 0
DWIDTH 31 0
BBX 26 27 5 -3
BITMAP
00000040
00F00080
00180100
00100200
00600400
00800800
00C01000
00C02000
00604000
00408000
00810000
1F020000
00020000
00040800
00081800
00101900
00201600
00406400
00808800
01031800
020FFE00
04002000
08002000
18006000
10000000
20000000
C0000000
ENDCHAR
STARTCHAR 00BF
ENCODING 191
SWIDTH 269 0
DWIDTH 14 0
BBX 16 24 -1 -12
BITMAP
0007
0007
0006
0000
0000
0030
0010
0010
0020
0040
0180
0200
0C00
1000
2000
6000
4000
C000
C000
C000
E000
7800
1E00
0600
ENDCHAR
STARTCHAR 00C0
ENCODING 192
SWIDTH 730 0
DWIDTH 38 0
BBX 39 40 3 -2
BITMAP
0000000080
0000000080
0000000040
0000000040
0000000020
0000000020
0000000000
0000000002
0000000002
00000007FA
0000003FFE
000001F00E
0000078006
00000C000C
000030001C
0000C00018
0001000030
0006000060
000C0000E0
00100001C0
0060000780
00C0000780
0180000B00
0300001600
0600002600
0C0000CC00
1800011C00
1800021800
3000043800
7000083000
6000107000
6000606000
E00180E000
E00200C000
E01C01C002
F8E001C004
3F0001C018
000001C020
000001E0C0
0000007F00
ENDCHAR
STARTCHAR 00C1
ENCODING 193
SWIDTH 730 0
DWIDTH 38 0
BBX 39 40 3 -2
BITMAP
0000000002
000000000C
0000000010
0000000020
00000000C0
0000000100
0000000000
0000000002
0000000002
00000007FA
0000003FFE
000001F00E
0000078006
00000C000C
000030001C
0000C00018
0001000030
0006000060
000C0000E0
00100001C0
0060000780
00C0000780
0180000B00
0300001600
0600002600
0C0000CC00
1800011C00
1800021800
3000043800
7000083000
6000107000
6000606000
E00180E000
E00200C000
E01C01C002
F8E001C004
3F0001C018
000001C020
000001E0C0
0000007F00
ENDCHAR
STARTCHAR 00C2
ENCODING 194
SWIDTH 730 0
DWIDTH 38 0
BBX 39 40 3 -2
BITMAP
0000000018
0000000078
0000000098
0000000118
0000000218
0000000018
0000000000
0000000002
0000000002
0000000FF6
0000007FFC
000001C01C
0000060032
0000180060
0000600060
00008000C0
00030001C0
0004000380
0008000300
0030000700
0040000A00
0080001600
0100002400
0300004C00
0600008C00
0C00011800
1800021800
1800043000
3000083000
7000106000
6000606000
600080E000
E00300E000
E00400C000
E01801C008
F0E001C010
7F0001C020
000001C0C0
000001E100
000000FE00
ENDCHAR
STARTCHAR 00C3
ENCODING 195
SWIDTH 711 0
DWIDTH 37 0
BBX 39 39 3 -2
BITMAP
0000000382
0000000CE4
0000001038
0000000000
0000000000
0000000000
0000000002
0000000002
00000007FA
0000003FFE
000001F00E
0000078006
00000C000C
000030001C
0000C00018
0001000030
0006000060
000C0000E0
00100001C0
0060000780
00C0000780
0180000B00
0300001600
0600002600
0C0000CC00
1800011C00
1800021800
3000043800
7000083000
6000107000
6000606000
E00180E000
E00200C000
E01C01C002
F8E001C004
3F0001C018
000001C020
000001E0C0
0000007F00
ENDCHAR
STARTCHAR 00C4
ENCODING 196
SWIDTH 730 0
DWIDTH 38 0
BBX 39 38 3 -3
BITMAP
0000000088
0000000198
0000000110
0000000000
0000000000
0000000002
0000000006
0000001FEE
0000007FFE
000003C01E
00000E0038
0000380078
0000600070
00018000E0
00020001E0
000C0003C0
0018000380
0030000780
0040000B00
0080001700
0100002600
0300004E00
0600008C00
0C00011C00
1800021800
1800043800
3000083000
7000107000
6000606000
600080E000
E00100E000
E00400C000
E01801C002
F0E001C004
7F0001C018
000001C020
000001E0C0
0000007F00
ENDCHAR
STARTCHAR 00C5
ENCODING 197
SWIDTH 730 0
DWIDTH 38 0
BBX 39 41 3 -3
BITMAP
000000007C
0000000082
0000000102
0000000102
0000000104
00000000D8
0000000020
0000000002
0000000002
0000000002
00000007FA
0000003FFE
000001F00E
0000070006
00001C000C
0000300018
0000C00038
0003000030
0006000060
00080000E0
00100001C0
0060000780
00C0000B80
0180001700
0300002600
0600004E00
0C00008C00
1800011C00
1800021800
3000043000
7000083000
6000307000
6000406000
E00180E000
E00600C000
E01801C002
F8E001C004
7F0001C018
000001C020
000001E0C0
0000007F00
ENDCHAR
STARTCHAR 00C6
ENCODING 198
SWIDTH 1019 0
DWIDTH 53 0
BBX 53 31 3 0
BITMAP
00000000010000
00000000060000
0000000F8C1F80
0000007FDC61C0
000003FFF88080
00000FC0310000
00001E00610000
00007800E30000
0000E000C30000
00038001830000
00060003838000
000C00031FF000
00380006780000
0070000BC00000
00C00017800000
0180002E000000
0300004C000000
0700009C000010
06000118000018
0C000238000018
18000430000010
38000870000010
30001070000020
700020F0000040
600040F0000080
E00081B0000100
E00301B8000200
E0040318000400
E018031E001800
F0E00607C0E000
7F000001FF0000
ENDCHAR
STARTCHAR 00C7
ENCODING 199
SWIDTH 615 0
DWIDTH 32 0
BBX 34 39 3 -7
BITMAP
00000000C0
0000000180
0000000300
000007F200
0000381E00
0000E00C00
0003800800
0006000800
001C001800
0038001000
0070003000
00E0007000
01C0006000
038000C000
0700000000
0E00000000
1E00000000
1C00000000
3800000000
7800000000
7000000000
7000000000
E000000000
E000000000
E000000000
E000000000
E000000000
E000007C00
6000038400
70001C0400
3800E00400
07BF000000
0140000000
0200000000
0780000000
0180000000
0100000000
0200000000
0C00000000
ENDCHAR
STARTCHAR 00C8
ENCODING 200
SWIDTH 788 0
DWIDTH 41 0
BBX 43 39 0 0
BITMAP
000000010000
000000010000
000000008000
000000008000
000000008000
000000004000
000000080000
000000100000
000000200000
000003FFFC00
00003FFFF800
0000F0400000
000300800000
000401000000
001801000000
001002000000
002004000000
006004000000
004008000000
00C008000000
00C010000000
00C020000000
00C07FFF0000
00407FE00000
000080000000
000080000020
000100000020
000200000020
000400000020
000800000040
3FF000000040
403C00000040
C04F00000080
C083C0000100
E100F0000300
7E003E000600
00000FE03800
000003FFF000
0000007F8000
ENDCHAR
STARTCHAR 00C9
ENCODING 201
SWIDTH 788 0
DWIDTH 41 0
BBX 43 39 0 0
BITMAP
000000000100
000000000200
000000000800
000000001000
000000002000
00000000C000
000000080000
000000100000
000000200000
000003FFFC00
00003FFFF800
0000F0400000
000300800000
000401000000
001801000000
001002000000
002004000000
006004000000
004008000000
00C008000000
00C010000000
00C020000000
00C07FFF0000
00407FE00000
000080000000
000080000020
000100000020
000200000020
000400000020
000800000040
3FF000000040
403C00000040
C04F00000080
C083C0000100
E100F0000300
7E003E000600
00000FE03800
000003FFF000
0000007F8000
ENDCHAR
STARTCHAR 00CA
ENCODING 202
SWIDTH 788 0
DWIDTH 41 0
BBX 43 39 0 0
BITMAP
000000000200
000000001E00
000000002600
000000004600
000000008600
000000020600
0000000C0000
000000100000
000000200000
000003FFFC00
00003FFFF800
0000F0400000
000300800000
000400800000
000801000000
001002000000
002002000000
006004000000
004008000000
00C008000000
00C010000000
00C020000000
00C07FFF8000
00407FE00000
000040000000
000080000020
000100000020
000200000020
000400000020
000800000040
3FF000000040
403C00000040
C04F00000080
C083C0000100
E100F0000300
7E003E000600
00000FE03800
000003FFF000
0000007F8000
ENDCHAR
STARTCHAR 00CB
ENCODING 203
SWIDTH 788 0
DWIDTH 41 0
BBX 43 37 0 -1
BITMAP
000000004800
00000000D800
000000009800
000000020000
0000000C0000
000000100000
000000300000
000003FFF800
00003FFFF800
0000F0400000
000300800000
000400800000
000801000000
001002000000
002002000000
006004000000
004004000000
00C008000000
00C010000000
00C010000000
00C07FFF8000
00407FE00000
000040000000
000080000020
000100000020
000200000020
000400000020
000800000040
3FF000000040
403C00000040
C04F00000080
C083C0000100
E100F0000300
7E003E000600
00000FE03800
000003FFF000
0000007F8000
ENDCHAR
STARTCHAR 00CC
ENCODING 204
SWIDTH 365 0
DWIDTH 19 0
BBX 34 39 -1 0
BITMAP
0000000200
0000000300
0000000100
0000000080
0000000080
0000000040
0000000000
0000000000
00000001C0
00000006C0
0000000880
0000001100
0000001E00
000000E000
0000072000
0000384000
0000C0C000
0001808000
0007018000
0006030000
000C030000
000C060000
000C060000
00040C0000
00001C0000
0000180000
0000380000
0000300000
0000600000
0000E00000
0000C00000
0001800000
0003000000
0002000000
0004000000
0008000000
C030000000
FCC0000000
FF00000000
ENDCHAR
STARTCHAR 00CD
ENCODING 205
SWIDTH 365 0
DWIDTH 19 0
BBX 36 37 -1 0
BITMAP
0000000010
0000000020
0000000040
0000000180
0000000200
0000000400
00000001C0
00000006C0
0000000880
0000001100
0000001E00
000000E000
0000072000
0000384000
0000C0C000
0001808000
0007018000
0006030000
000C030000
000C060000
000C060000
00040C0000
00001C0000
0000180000
0000380000
0000300000
0000600000
0000E00000
0000C00000
0001800000
0003000000
0002000000
0004000000
0008000000
C030000000
FCC0000000
FF00000000
ENDCHAR
STARTCHAR 00CE
ENCODING 206
SWIDTH 365 0
DWIDTH 19 0
BBX 36 39 -1 0
BITMAP
0000000010
0000000030
00000000F0
0000000130
0000000230
0000000430
0000000020
0000000000
00000001C0
00000006C0
0000000880
0000001100
0000001E00
000000E000
0000072000
0000384000
0000C0C000
0001808000
0007018000
0006030000
000C030000
000C060000
000C060000
00040C0000
00001C0000
0000180000
0000380000
0000300000
0000600000
0000E00000
0000C00000
0001800000
0003000000
0002000000
0004000000
0008000000
C030000000
FCC0000000
FF00000000
ENDCHAR
STARTCHAR 00CF
ENCODING 207
SWIDTH 365 0
DWIDTH 19 0
BBX 35 37 -1 0
BITMAP
0000000020
0000000160
0000000360
0000000200
0000000000
0000000000
0000000300
0000000500
0000000900
0000001200
0000001C00
000000E000
0000072000
0000384000
0000C0C000
0001808000
0007018000
0006030000
000C030000
000C060000
000C060000
00040C0000
00001C0000
0000180000
0000380000
0000300000
0000600000
0000E00000
0000C00000
0001800000
0003000000
0002000000
0004000000
0008000000
C030000000
FCC0000000
FF00000000
ENDCHAR
STARTCHAR 00D0
ENCODING 208
SWIDTH 884 0
DWIDTH 46 0
BBX 46 37 2 1
BITMAP
000000001000
000000006000
00000000C000
000000018000
000000030000
000000030000
000000060000
000000060000
000003FFF000
00003C0C1E00
0001C01C0380
0007001801E0
000C00380070
001800300070
003000700038
006000600038
006000E0001C
00C000C0001C
00400180001C
00000180001C
00000300001C
00000300001C
00000600001C
0000FFFE001C
00000C000038
100018000038
380018000030
3C0030000070
7E0060000060
4F00400000E0
4780800001C0
C3C100000180
C1E200000700
E07400000C00
E03C00003000
702FC000C000
3FC07FFF0000
ENDCHAR
STARTCHAR 00D1
ENCODING 209
SWIDTH 788 0
DWIDTH 41 0
BBX 46 41 2 -6
BITMAP
000000007040
000000009840
000000010C80
000000020700
000000000000
000000000000
000000000070
0000000003FC
000000000C1C
00000000300C
00000000C00C
00000701000C
00003F02000C
0000C70C0008
000306100010
000406200020
00180C400020
002008800040
004009000080
008012000100
030014000200
060028000400
0C0050000800
080060001000
1800C0003000
300080006000
20018000C000
600300018000
600200030000
C00600060000
C00C000C0000
C01C000C0000
C01800180000
C03800380000
C03000300000
400000700000
400000700000
200000700040
200000780180
1000003C1E00
0E00001FE000
ENDCHAR
STARTCHAR 00D2
ENCODING 210
SWIDTH 596 0
DWIDTH 31 0
BBX 33 36 3 1
BITMAP
0000010000
0000010000
0000008000
0000008000
0000008000
0000004000
0000000000
000000FC00
0000070600
0000780300
0001B00180
0006600180
0018600180
0020C00180
0040C00180
0180C00100
0300400100
0600000100
0400000200
0C00000200
1800000400
3800000400
3000000800
7000001000
6000001000
6000002000
E000004000
E000008000
E000010000
E000020000
E000040000
E000180000
7000200000
7800C00000
3E07000000
0FF8000000
ENDCHAR
STARTCHAR 00D3
ENCODING 211
SWIDTH 596 0
DWIDTH 31 0
BBX 33 38 3 0
BITMAP
0000000080
0000000100
0000000400
0000000800
0000001000
0000006000
0000008000
0000000000
0000000000
000000FC00
0000070600
0000780300
0001B00180
0006600180
0018600180
0020C00180
0040C00180
0180C00100
0300400100
0600000100
0400000200
0C00000200
1800000400
3800000400
3000000800
7000001000
6000001000
6000002000
E000004000
E000008000
E000010000
E000020000
E000040000
E000180000
7000200000
7800C00000
3E07000000
0FF8000000
ENDCHAR
STARTCHAR 00D4
ENCODING 212
SWIDTH 596 0
DWIDTH 31 0
BBX 33 37 3 1
BITMAP
0000000200
0000001E00
0000002600
0000004600
0000008600
0000010600
0000000000
0000000000
000000FC00
0000070600
0000380300
0001F00180
0006600180
0018600180
0020C00180
0040C00180
0180C00100
0300400100
0600000100
0400000200
0C00000200
1800000400
3800000400
3000000800
7000001000
6000001000
6000002000
E000004000
E000008000
E000010000
E000020000
E000040000
E000180000
7000200000
7800C00000
3E07000000
0FF8000000
ENDCHAR
STARTCHAR 00D5
ENCODING 213
SWIDTH 596 0
DWIDTH 31 0
BBX 33 34 3 1
BITMAP
000001C100
0000026100
0000043200
0000081C00
0000000000
000000FC00
0000070600
0000780300
0001B00180
0006600180
0018600180
0020C00180
0040C00180
0180C00100
0300400100
0600000300
0400000200
0C00000200
1800000400
3800000400
3000000800
7000001000
6000001000
6000002000
E000004000
E000008000
E000010000
E000020000
E000040000
E000180000
7000200000
7800C00000
3E07000000
0FF8000000
ENDCHAR
STARTCHAR 00D6
ENCODING 214
SWIDTH 596 0
DWIDTH 31 0
BBX 32 34 3 0
BITMAP
00000011
00000033
00000022
00000000
00000000
000000F8
00000706
00003802
0001F001
00066001
00186001
0020C001
0040C001
0180C002
03004002
06000002
04000004
0C000004
18000008
38000008
30000010
70000010
60000020
60000040
E0000080
E0000080
E0000100
E0000200
E0000C00
E0001000
70006000
78018000
3E060000
0FF80000
ENDCHAR
STARTCHAR 00D7
ENCODING 215
SWIDTH 403 0
DWIDTH 21 0
BBX 13 9 5 2
BITMAP
0608
0630
0660
0380
0200
0E00
1A00
2300
C100
ENDCHAR
STARTCHAR 00D8
ENCODING 216
SWIDTH 596 0
DWIDTH 31 0
BBX 34 34 2 -3
BITMAP
0000000040
0000000080
000001FF00
00003F0380
0001DC04C0
00023808C0
000C3010C0
00106020C0
00206040C0
00406080C0
0080210080
0100020080
0300040180
0600080100
0600100300
0C00200200
1C00400400
1800800400
3801000800
3802001000
3004001000
7008002000
7010004000
7020008000
7040010000
7080060000
7100080000
7200100000
3C00600000
3E03800000
1FFC000000
2000000000
4000000000
8000000000
ENDCHAR
STARTCHAR 00D9
ENCODING 217
SWIDTH 865 0
DWIDTH 45 0
BBX 48 39 2 -4
BITMAP
000000001000
000000001000
000000000800
000000000800
000000000800
000000000000
00001FC00003
000061E00006
000180E00004
000600600008
000800600018
003000400010
004000C00020
008000C00040
010001800080
020001000100
040003000300
040002000200
080004000E00
08000C001400
100008002400
100010004800
200030008800
200020011000
600040021000
4000C0043000
400180083000
400180302000
C00300406000
C00300806008
C00703006008
C00704006010
C007F8006010
6003C0007020
600000007040
300000003880
180000001F00
0C0000000000
038000000000
ENDCHAR
STARTCHAR 00DA
ENCODING 218
SWIDTH 865 0
DWIDTH 45 0
BBX 48 40 2 -4
BITMAP
000000000020
000000000040
000000000080
000000000300
000000000400
000000000800
000000000000
00001FC00003
000061E00006
000180E00004
000600600008
000800600018
003000400010
004000C00020
008000C00040
010001800080
020001000100
040003000300
040002000200
080004000E00
08000C001400
100008002400
100010004800
200030008800
200020011000
600040021000
4000C0043000
400180083000
400180302000
C00300406000
C00300806008
C00703006008
C00704006010
C007F8006010
6003C0007020
600000007040
300000003880
180000001F00
0C0000000000
038000000000
ENDCHAR
STARTCHAR 00DB
ENCODING 219
SWIDTH 865 0
DWIDTH 45 0
BBX 48 40 2 -5
BITMAP
000000000080
000000000380
000000000D80
000000001180
000000002180
000000004180
000000000100
00001FC00001
000061E00003
000180E00006
000600600004
000800600008
003000400010
004000C00020
008000C00040
010001800080
020001000080
040003000100
040002000600
080004000600
08000C000C00
100008001400
100010002800
200030004800
200020019800
600040021000
4000C0043000
400180083000
400180102000
C00300606000
C00300806004
C00703006008
C00704006008
C007F8006010
6003C0007010
600000007020
300000003C40
180000001F80
0C0000000000
038000000000
ENDCHAR
STARTCHAR 00DC
ENCODING 220
SWIDTH 865 0
DWIDTH 45 0
BBX 47 40 2 -5
BITMAP
000000002200
000000006600
000000004600
000000000000
000000000000
000000000000
000000000000
00001FC00002
000061E00006
000180E0000C
000600600008
000800600010
003000400020
004000C00040
008000C00040
010001800080
020001000100
040003000100
040002000600
080004000E00
08000C001400
100008002C00
100010004800
200030009800
200020011000
600040021000
4000C0043000
400180183000
400180202000
C00300406000
C00301806008
C00702006010
C0070C006010
C007F0006020
600380007020
600000007040
300000003880
180000001F00
0C0000000000
038000000000
ENDCHAR
STARTCHAR 00DD
ENCODING 221
SWIDTH 576 0
DWIDTH 30 0
BBX 48 52 -5 -14
BITMAP
000000000080
000000000300
000000000400
000000000800
000000003000
000000004007
000000000009
000000000011
000007800022
000018C00022
000020C00044
000040C00088
000080C00090
000101800110
000201800320
000401800240
000003000680
000007000D00
000006000A00
000006001C00
00000C001800
00000C003000
000018002000
000018006000
00001800C000
00003003C000
000030058000
000030198000
000030E30000
00001F030000
000000060000
000000040000
0000000C0000
000000080000
000000180000
000000300000
000000200000
000000600000
000000400000
000000800000
000000800000
000001000000
000002000000
800004000000
800008000000
800010000000
C00020000000
C00040000000
600080000000
700300000000
3C0C00000000
0FF000000000
ENDCHAR
STARTCHAR 00DE
ENCODING 222
SWIDTH 538 0
DWIDTH 28 0
BBX 33 38 1 0
BITMAP
0000000800
0000003000
0000004000
0000008000
0000018000
0000030000
0000030000
0000060000
0000060000
00000C0000
0003FFF000
003C181E00
00C0180700
0300300380
0C00200380
1800600180
3000400180
3000C00180
6000800180
6001800100
6001000300
0003000200
0002000400
0002000800
0004C01000
0004E06000
00087F8000
0008000000
0010000000
0020000000
0020000000
0040000000
0080000000
0080000000
0100000000
0600000000
7FE1E00000
FFFF000000
ENDCHAR
STARTCHAR 00DF
ENCODING 223
SWIDTH 250 0
DWIDTH 13 0
BBX 50 52 -23 -24
BITMAP
00000000000F80
000000000031C0
000000000040C0
000000000080C0
00000000010080
00000000020080
00000000040100
000000000C0200
00000000180400
00000000100800
00000000301000
00000000202000
00000000604000
00000000C08000
00000000C30000
00000001840000
00000001080000
00000003300000
00000002400000
00000006C00000
00000004C00000
0000000CC00000
00000008C00000
00000018C00000
00000010C00000
00000030C00000
000000E0800000
00000371000000
0000047E000000
000000C0000000
00000080000000
00000180000000
00000100000000
00000200000000
00000200000000
00000400000000
00000C00000000
00000800000000
00001000000000
00001000000000
00002000000000
00004000000000
00008000000000
00010000000000
00010000000000
00020000000000
00040000000000
00080000000000
00300000000000
00400000000000
C1800000000000
FE000000000000
ENDCHAR
STARTCHAR 00E0
ENCODING 224
SWIDTH 269 0
DWIDTH 14 0
BBX 17 24 1 -2
BITMAP
010000
010000
008000
008000
004000
004000
000000
001800
001000
00F000
012000
026000
046000
08C000
11C000
32C000
648080
648100
C98200
D10400
E10400
010800
011000
01E000
ENDCHAR
STARTCHAR 00E1
ENCODING 225
SWIDTH 269 0
DWIDTH 14 0
BBX 17 24 1 -2
BITMAP
000080
000300
000400
000800
001000
006000
000000
000400
000800
003800
00D000
031000
062000
0C6000
18E000
314000
214080
628100
448200
D90400
E10400
010800
011000
01E000
ENDCHAR
STARTCHAR 00E2
ENCODING 226
SWIDTH 269 0
DWIDTH 14 0
BBX 17 25 1 -3
BITMAP
000200
000600
001E00
006600
008600
010600
000400
000000
000E00
000C00
007C00
019800
023000
047000
086000
19E000
31C000
22C080
648100
488200
D18400
E10400
010800
011000
01E000
ENDCHAR
STARTCHAR 00E3
ENCODING 227
SWIDTH 269 0
DWIDTH 14 0
BBX 16 22 1 -3
BITMAP
01C1
0261
0432
081C
0000
0000
0018
0070
0090
0330
0420
0860
18C0
3140
2281
6482
4884
D104
E108
0110
0120
01C0
ENDCHAR
STARTCHAR 00E4
ENCODING 228
SWIDTH 269 0
DWIDTH 14 0
BBX 17 22 1 -3
BITMAP
004400
00CC00
00CC00
000000
000000
000000
000C00
003800
00C800
011000
063000
0C2000
18E000
31C000
22C080
648100
488200
D18400
E10400
010800
011000
01E000
ENDCHAR
STARTCHAR 00E5
ENCODING 229
SWIDTH 269 0
DWIDTH 14 0
BBX 17 24 1 -3
BITMAP
003C00
004200
008200
008200
008400
004800
003000
000200
000C00
003C00
00D800
011800
063000
0C7000
18E000
314000
22C080
648100
488200
D18400
E10400
010800
011000
01E000
ENDCHAR
STARTCHAR 00E6
ENCODING 230
SWIDTH 288 0
DWIDTH 15 0
BBX 19 11 1 1
BITMAP
00F300
033300
042200
084400
10C800
31B020
23C040
4F0080
4B0300
F39C00
C1E000
ENDCHAR
STARTCHAR 00E7
ENCODING 231
SWIDTH 211 0
DWIDTH 11 0
BBX 14 18 1 -6
BITMAP
00F0
0330
0C20
1000
1004
2008
2010
6020
6040
6180
3E00
1000
6000
3C00
0C00
1000
2000
C000
ENDCHAR
STARTCHAR 00E8
ENCODING 232
SWIDTH 250 0
DWIDTH 13 0
BBX 16 20 3 1
BITMAP
0400
0400
0400
0200
0200
0000
0000
0000
0380
0D80
1980
1101
327E
6580
6000
C000
C000
C000
C000
6000
ENDCHAR
STARTCHAR 00E9
ENCODING 233
SWIDTH 250 0
DWIDTH 13 0
BBX 16 21 3 1
BITMAP
0008
0010
0060
0080
0100
0600
0800
0000
0000
0380
0D80
1980
1101
327E
6580
6000
C000
C000
C000
C000
6000
ENDCHAR
STARTCHAR 00EA
ENCODING 234
SWIDTH 250 0
DWIDTH 13 0
BBX 16 21 3 0
BITMAP
0010
0030
00F0
0130
0230
0430
0020
0000
0000
0380
0D80
1980
1101
327E
6580
6000
C000
C000
C000
C000
6000
ENDCHAR
STARTCHAR 00EB
ENCODING 235
SWIDTH 250 0
DWIDTH 13 0
BBX 16 19 3 0
BITMAP
0220
0660
0640
0000
0000
0000
0000
0180
0680
0C80
1901
327E
6180
6000
C000
C000
C000
C000
6000
ENDCHAR
STARTCHAR 00EC
ENCODING 236
SWIDTH 173 0
DWIDTH 9 0
BBX 12 20 2 1
BITMAP
0800
0800
0400
0400
0400
0200
0000
0000
0000
3C00
0C00
0800
1000
3010
2020
6040
4080
C100
C600
7800
ENDCHAR
STARTCHAR 00ED
ENCODING 237
SWIDTH 173 0
DWIDTH 9 0
BBX 12 20 2 1
BITMAP
0010
0060
0080
0100
0200
0C00
0000
0000
0000
3C00
0C00
0800
1000
3010
2020
6040
4080
C100
C600
7800
ENDCHAR
STARTCHAR 00EE
ENCODING 238
SWIDTH 173 0
DWIDTH 9 0
BBX 12 20 2 1
BITMAP
0040
01C0
06C0
08C0
08C0
10C0
0000
0000
0000
3C00
0C00
0800
1000
3010
2020
6040
4080
C100
C600
7800
ENDCHAR
STARTCHAR 00EF
ENCODING 239
SWIDTH 173 0
DWIDTH 9 0
BBX 12 19 2 0
BITMAP
0440
0CC0
0CC0
0000
0000
0000
0000
0000
3C00
0C00
1800
1000
3010
2020
6040
4080
C100
C600
7800
ENDCHAR
STARTCHAR 00F0
ENCODING 240
SWIDTH 230 0
DWIDTH 12 0
BBX 12 35 1 -1
BITMAP
8000
C000
4000
6000
3000
3000
1800
1800
0C00
0400
0600
0210
03E0
0F00
3100
0180
0080
0080
0040
0040
0040
0020
0020
00E0
0120
0220
0620
0420
0C20
1840
1840
1040
3080
3100
1E00
ENDCHAR
STARTCHAR 00F1
ENCODING 241
SWIDTH 250 0
DWIDTH 13 0
BBX 16 21 1 -2
BITMAP
00C1
0121
0212
040C
0000
0000
0000
0000
0E60
05E0
0660
0C40
08C0
1880
1180
3100
2306
6208
4610
C660
C780
ENDCHAR
STARTCHAR 00F2
ENCODING 242
SWIDTH 250 0
DWIDTH 13 0
BBX 18 21 2 1
BITMAP
030000
030000
018000
00C000
004000
002000
000000
000000
000000
01E040
0F2180
122200
122400
225800
23E000
404000
C04000
C08000
C10000
C60000
780000
ENDCHAR
STARTCHAR 00F3
ENCODING 243
SWIDTH 250 0
DWIDTH 13 0
BBX 18 21 2 1
BITMAP
000300
000400
001800
002000
00C000
010000
000000
000000
000000
01E040
0F2180
122200
122C00
225000
23E000
408000
C08000
C10000
C20000
C40000
780000
ENDCHAR
STARTCHAR 00F4
ENCODING 244
SWIDTH 250 0
DWIDTH 13 0
BBX 18 21 2 1
BITMAP
000400
003C00
004C00
008C00
010C00
020C00
000000
000000
000000
01E040
0F2080
122300
122C00
225000
23E000
408000
C08000
C10000
C20000
C40000
780000
ENDCHAR
STARTCHAR 00F5
ENCODING 245
SWIDTH 250 0
DWIDTH 13 0
BBX 18 19 2 0
BITMAP
01C100
026100
043200
081C00
000000
000000
000000
01E040
0F2180
122200
122C00
225000
23E000
408000
C08000
C10000
C20000
C40000
780000
ENDCHAR
STARTCHAR 00F6
ENCODING 246
SWIDTH 250 0
DWIDTH 13 0
BBX 17 19 2 0
BITMAP
004400
00CC00
008800
000000
000000
000000
000000
01C000
0F4180
124200
124C00
225000
63E000
408000
C08000
C10000
C20000
C40000
780000
ENDCHAR
STARTCHAR 00F7
ENCODING 247
SWIDTH 403 0
DWIDTH 21 0
BBX 12 9 7 3
BITMAP
0180
0180
0000
0000
FFF0
0000
0000
1800
1800
ENDCHAR
STARTCHAR 00F8
ENCODING 248
SWIDTH 230 0
DWIDTH 12 0
BBX 17 15 1 -2
BITMAP
000800
001000
00E000
033F80
04E000
092000
114000
124000
248000
288000
310000
220000
340000
480000
800000
ENDCHAR
STARTCHAR 00F9
ENCODING 249
SWIDTH 288 0
DWIDTH 15 0
BBX 17 21 2 1
BITMAP
010000
010000
008000
008000
008000
004000
000000
000000
000000
0F0000
311800
C13000
023000
066000
0CE000
18C000
318080
678100
C90200
910400
A09800
ENDCHAR
STARTCHAR 00FA
ENCODING 250
SWIDTH 288 0
DWIDTH 15 0
BBX 17 21 2 1
BITMAP
000200
000400
000800
003000
004000
008000
000000
000000
000000
0F0000
311800
C13000
023000
066000
0CE000
18C000
318080
678100
C90200
910400
A09800
ENDCHAR
STARTCHAR 00FB
ENCODING 251
SWIDTH 288 0
DWIDTH 15 0
BBX 17 21 2 1
BITMAP
000200
001E00
002600
004600
008600
010600
000000
000000
000000
0F0400
310600
C10C00
021800
063000
0C2000
184000
308000
638080
C50100
890600
F0D800
ENDCHAR
STARTCHAR 00FC
ENCODING 252
SWIDTH 288 0
DWIDTH 15 0
BBX 15 19 2 0
BITMAP
0024
006C
004C
0000
0000
0000
0000
0F10
3110
C130
0260
0660
0CC0
19C0
3180
6782
C904
9108
A0B0
ENDCHAR
STARTCHAR 00FD
ENCODING 253
SWIDTH 230 0
DWIDTH 12 0
BBX 55 48 -35 -26
BITMAP
00000000000004
00000000000010
00000000000020
00000000000040
00000000000180
0000000000020E
0000000000003E
00000000000042
00000000000080
00000000000100
00000000004200
0000000003C200
000000000CC400
00000000008800
00000000018800
00000000031000
00000000031000
00000000062000
00000000064000
000000000C4000
000000000C8000
00000000038000
00000000010000
00000000010000
00000000020000
00000000040000
00000000040000
00000000080000
00000000100000
00000000100000
00000000200000
00000000400000
00000000800000
00000000800000
00000001000000
00000002000000
80000004000000
80000008000000
80000010000000
80000020000000
80000040000000
C0000080000000
40000100000000
60000600000000
30000800000000
3C003000000000
0F81C000000000
03FE0000000000
ENDCHAR
STARTCHAR 00FE
ENCODING 254
SWIDTH 250 0
DWIDTH 13 0
BBX 31 39 -14 -18
BITMAP
00000010
00000030
00000060
00000060
000000C0
000000C0
00000180
00000100
00000300
00000600
00000600
00000C00
00000800
000018E0
00003340
000034C0
00007986
00006198
0000C360
0000BE80
00010000
00030000
00060000
001E0000
002C0000
00580000
00980000
01300000
02200000
04600000
08C00000
08800000
11000000
23000000
46000000
44000000
88000000
90000000
60000000
ENDCHAR
STARTCHAR 00FF
ENCODING 255
SWIDTH 230 0
DWIDTH 12 0
BBX 55 46 -35 -27
BITMAP
00000000000440
00000000000CC0
00000000000CC0
0000000000000E
0000000000001E
00000000000062
00000000000080
00000000000100
00000000000200
0000000003C200
000000000CC400
00000000008400
00000000018800
00000000031000
00000000031000
00000000062000
00000000062000
000000000C4000
000000000C8000
00000000038000
00000000010000
00000000010000
00000000020000
00000000040000
00000000040000
00000000080000
00000000100000
00000000100000
00000000200000
00000000400000
00000000800000
00000000800000
00000001000000
00000002000000
80000004000000
80000008000000
80000010000000
80000020000000
80000040000000
C0000080000000
40000100000000
60000600000000
30000800000000
3C003000000000
0F81C000000000
03FE0000000000
ENDCHAR
STARTCHAR 0100
ENCODING 256
SWIDTH 730 0
DWIDTH 38 0
BBX 39 36 3 -3
BITMAP
00000001F0
0000000000
0000000002
0000000002
0000000002
00000007FA
0000003FFE
000001F00E
0000078006
00000C000C
000030001C
0000C00018
0001000030
0006000060
000C0000E0
00100001C0
0060000780
00C0000780
0180000B00
0300001600
0600002600
0C0000CC00
1800011C00
1800021800
3000043800
7000083000
6000107000
6000606000
E00180E000
E00200C000
E01C01C002
F8E001C004
3F0001C018
000001C020
000001E0C0
0000007F00
ENDCHAR
STARTCHAR 0101
ENCODING 257
SWIDTH 269 0
DWIDTH 14 0
BBX 17 20 1 -3
BITMAP
003C00
000000
000000
000000
000C00
003800
00D800
031000
063000
0C6000
18E000
314000
214080
628100
448200
D90400
E10400
010800
011000
01E000
ENDCHAR
STARTCHAR 0102
ENCODING 258
SWIDTH 730 0
DWIDTH 38 0
BBX 39 38 3 -3
BITMAP
0000000100
0000000302
000000038C
00000001F2
0000000002
0000000002
0000000002
00000007FA
0000003FFE
000001F00E
0000070006
00001C000C
000030001C
0000C00038
0001000030
0006000060
00080000E0
00100001C0
0060000780
00C0000F80
0180001700
0300002E00
0600004E00
0C00009C00
1800011C00
1800023800
30000C3800
7000107000
6000207000
6000C0E000
E00100E000
E00600C000
E01801C002
F8E001C004
7F0001C018
000001C020
000001E0C0
0000007F00
ENDCHAR
STARTCHAR 0103
ENCODING 259
SWIDTH 269 0
DWIDTH 14 0
BBX 17 22 1 -3
BITMAP
004000
00C000
00E600
007800
000000
000000
000C00
003800
00D800
011000
063000
0C6000
18A000
30C000
214080
628100
448200
D88400
E10400
010800
011000
01E000
ENDCHAR
STARTCHAR 0104
ENCODING 260
SWIDTH 730 0
DWIDTH 38 0
BBX 39 39 3 -8
BITMAP
0000000002
0000000002
00000007FA
0000003FFE
000001F00E
0000078006
00000C000C
000030001C
0000C00018
0001000030
0006000060
000C0000E0
00100001C0
0060000780
00C0000780
0180000B00
0300001600
0600002600
0C0000CC00
1800011C00
1800021800
3000043800
7000083000
6000107000
6000606000
E00180E000
E00200C000
E01C01C002
F8E001C004
3F0001C018
000001C020
000001E0C0
0000007F00
0000003000
0000006000
000000C000
000001C000
000001C000
000000F000
ENDCHAR
STARTCHAR 0105
ENCODING 261
SWIDTH 269 0
DWIDTH 14 0
BBX 17 22 1 -8
BITMAP
000400
000800
003800
00D000
031000
062000
0C6000
18E000
314000
214080
628100
448200
D90400
E10400
010800
011000
03E000
1C0000
200000
400000
C00000
700000
ENDCHAR
STARTCHAR 0106
ENCODING 262
SWIDTH 615 0
DWIDTH 32 0
BBX 35 37 3 1
BITMAP
0000000060
0000000080
0000000100
0000000200
0000000C00
00000010C0
0000000180
0000000300
000007F200
0000381E00
0000E00C00
0003800C00
0006000800
001C001800
0038001000
0070003000
00E0003000
01C0006000
038000C000
0700000000
0E00000000
1E00000000
1C00000000
3800000000
7800000000
7000000000
7000000000
F000000000
E000000000
E000000000
E000000000
E000000000
E000007C00
6000038400
70001C0400
3800E00400
079F000000
ENDCHAR
STARTCHAR 0107
ENCODING 263
SWIDTH 211 0
DWIDTH 11 0
BBX 14 20 2 1
BITMAP
0004
0010
0020
0040
0180
0200
0000
0000
00E0
0760
0840
1000
3000
2000
6020
4040
C080
C100
C600
7800
ENDCHAR
STARTCHAR 0108
ENCODING 264
SWIDTH 615 0
DWIDTH 32 0
BBX 32 38 3 0
BITMAP
00000008
00000018
00000078
00000098
00000118
00000218
00000011
00000003
00000002
000007E4
0000383C
0000C018
00030010
000E0010
00180030
00300020
00600060
00C00060
018000C0
03800080
07000000
0E000000
1C000000
1C000000
38000000
78000000
70000000
70000000
E0000000
E0000000
E0000000
E0000000
E0000000
E00000F8
60000788
70003808
3801C008
073E0018
ENDCHAR
STARTCHAR 0109
ENCODING 265
SWIDTH 211 0
DWIDTH 11 0
BBX 14 20 2 1
BITMAP
000C
003C
004C
018C
020C
000C
0000
0000
00E0
0760
0840
1000
3000
2000
6020
4040
C080
C100
C600
7800
ENDCHAR
STARTCHAR 010A
ENCODING 266
SWIDTH 615 0
DWIDTH 32 0
BBX 33 33 3 1
BITMAP
0000018000
0000018000
0000000180
0000000100
000007F200
0000383C00
0000C01800
0003001800
0006001000
001C002000
0030002000
0060006000
00C000C000
0180008000
0380010000
0700000000
0E00000000
1C00000000
1C00000000
3800000000
7800000000
7000000000
7000000000
E000000000
E000000000
E000000000
E000000000
E000000000
E000007C00
6000038400
70001C0400
3800E00400
079F000000
ENDCHAR
STARTCHAR 010B
ENCODING 267
SWIDTH 211 0
DWIDTH 11 0
BBX 13 18 2 0
BITMAP
00C0
00C0
0000
0000
0000
0000
0000
03C0
0CC0
1080
2000
2008
4010
4020
C040
C080
C300
7C00
ENDCHAR
STARTCHAR 010C
ENCODING 268
SWIDTH 615 0
DWIDTH 32 0
BBX 33 38 3 1
BITMAP
000000C400
000000C800
000000D000
000000E000
000000C000
0000008000
0000000180
0000000300
0000000200
000007F200
0000381C00
0000E00C00
0003800800
0006000800
001C001000
0038003000
0070003000
00E0006000
01C0006000
038000C000
0700000000
0E00000000
1E00000000
1C00000000
3800000000
7800000000
7000000000
7000000000
F000000000
E000000000
E000000000
E000000000
E000000000
E000007C00
6000038400
70001C0400
3800E00400
079F000000
ENDCHAR
STARTCHAR 010D
ENCODING 269
SWIDTH 211 0
DWIDTH 11 0
BBX 13 20 2 1
BITMAP
00C0
00C8
00D0
00E0
00C0
0080
0000
0000
0000
03C0
0CC0
1080
2000
2008
4010
4020
C040
C080
C300
7C00
ENDCHAR
STARTCHAR 010E
ENCODING 270
SWIDTH 884 0
DWIDTH 46 0
BBX 46 44 2 0
BITMAP
000000004000
00000000C200
00000000CC00
00000000D000
00000000E000
00000000C000
000000008000
000000001000
000000006000
00000000C000
000000018000
000000038000
000000030000
000000070000
000000060000
000003FFF000
00003C0C1E00
0001C01C0380
0007001801E0
000C00380070
001800300070
003000300038
006000600038
006000E0001C
00C000C0001C
004001C0001C
00000180001C
00000380001C
00000300001C
00000600001C
00000600001C
00000C000038
100008000038
380018000030
3C0030000070
7E0020000060
4F00400000E0
4780800001C0
C3C100000180
C1E200000700
E07400000C00
E03C00003000
702FC000C000
3FC07FFF0000
ENDCHAR
STARTCHAR 010F
ENCODING 271
SWIDTH 211 0
DWIDTH 11 0
BBX 11 35 2 0
BITMAP
4000
4000
6000
3040
3060
1860
1820
0840
0C80
0500
0600
0200
0200
0300
0100
0100
0100
0080
0080
0080
0080
0080
0080
0180
0680
0C80
1880
3080
6080
6100
C100
C200
C400
C800
3000
ENDCHAR
STARTCHAR 0110
ENCODING 272
SWIDTH 884 0
DWIDTH 46 0
BBX 46 37 2 1
BITMAP
000000001000
000000006000
00000000C000
000000018000
000000030000
000000030000
000000060000
000000060000
000003FFF000
00003C0C1E00
0001C01C0380
0007001801E0
000C00380070
001800300070
003000700038
006000600038
006000E0001C
00C000C0001C
00C001C0001C
00000180001C
00000300001C
00000300001C
00000600001C
00000600001C
1001FFF80038
38000C000038
3C0018000030
7C0030000070
7E0060000060
4F00400000E0
C780800001C0
C3C100000180
C1E200000700
E07C00000C00
E03E00003000
7047C000C000
3F807FFF0000
ENDCHAR
STARTCHAR 0111
ENCODING 273
SWIDTH 211 0
DWIDTH 11 0
BBX 13 35 2 0
BITMAP
4000
6000
6000
3000
3000
1800
1800
0800
0C00
0400
0600
0200
0200
0300
0100
0100
0108
3EF0
0080
0080
0080
0080
0080
0180
0680
0880
1880
3080
6080
6100
C100
C200
C400
C800
3000
ENDCHAR
STARTCHAR 0112
ENCODING 274
SWIDTH 788 0
DWIDTH 41 0
BBX 43 35 0 -1
BITMAP
00000000F000
000000000000
000000080000
000000100000
000000200000
000003FFFC00
00003FFFF800
0000F0400000
000300800000
000401000000
001801000000
001002000000
002004000000
006004000000
004008000000
00C008000000
00C010000000
00C020000000
00C07FFF0000
00407FE00000
000080000000
000080000020
000100000020
000200000020
000400000020
000800000040
3FF000000040
403C00000040
C04F00000080
C083C0000100
E100F0000300
7E003E000600
00000FE03800
000003FFF000
0000007F8000
ENDCHAR
STARTCHAR 0113
ENCODING 275
SWIDTH 250 0
DWIDTH 13 0
BBX 16 17 3 0
BITMAP
07C0
0000
0000
0000
0000
0380
0D80
1980
1101
327E
6580
6000
C000
C000
C000
C000
6000
ENDCHAR
STARTCHAR 0114
ENCODING 276
SWIDTH 788 0
DWIDTH 41 0
BBX 43 37 0 -1
BITMAP
000000004000
00000000C000
00000000CC00
000000047000
000000080000
000000100000
000000200000
000003FFFC00
00003FFFF800
0000F0400000
000300800000
000400800000
000801000000
001002000000
002002000000
006004000000
004008000000
00C008000000
00C010000000
00C010000000
00C07FFF8000
00407FE00000
000040000000
000080000020
000100000020
000200000020
000400000020
000800000040
3FF000000040
403C00000040
C04F00000080
C083C0000100
E100F0000300
7E003E000600
00000FE03800
000003FFF000
0000007F8000
ENDCHAR
STARTCHAR 0115
ENCODING 277
SWIDTH 250 0
DWIDTH 13 0
BBX 15 19 3 0
BITMAP
0400
0C20
0E40
0780
0000
0000
0000
0380
0D80
1900
130E
37F0
6000
6000
C000
C000
C000
C000
7800
ENDCHAR
STARTCHAR 0116
ENCODING 278
SWIDTH 788 0
DWIDTH 41 0
BBX 43 36 0 -1
BITMAP
000000006000
000000006000
000000020000
0000000C0000
000000100000
000000300000
000003FFFC00
00003FFFF800
0000F0400000
000300800000
000400800000
000801000000
001002000000
002002000000
006004000000
004004000000
00C008000000
00C010000000
00C010000000
00C07FFFC000
00407FF00000
000040000000
000080000020
000100000020
000200000020
000400000020
000800000040
3FF000000040
403C00000040
C04F00000080
C083C0000100
E100F0000300
7E003E000600
00000FE03800
000003FFF000
0000007F8000
ENDCHAR
STARTCHAR 0117
ENCODING 279
SWIDTH 250 0
DWIDTH 13 0
BBX 16 18 3 0
BITMAP
0180
0180
0000
0000
0000
0000
0380
0D80
1980
1301
327E
6580
6000
C000
C000
C000
C000
6000
ENDCHAR
STARTCHAR 0118
ENCODING 280
SWIDTH 788 0
DWIDTH 41 0
BBX 43 40 0 -7
BITMAP
000000020000
000000040000
000000180000
000000100000
000003FFFC00
00003FFFF800
0000F0400000
000380400000
000600800000
000801000000
001001000000
002002000000
006004000000
004004000000
00C008000000
00C010000000
00C010000000
00C07FFF8000
00407FE00000
000040000000
000080000020
000100000020
000200000020
000400000020
000800000040
3FF000000040
403C00000040
C04F00000080
C083C0000100
E100F0000300
7E003E000600
00000FE03800
000003FFF000
0000007F8000
000000000000
0000000C0000
000000100000
000000300000
000000300000
0000001C0000
ENDCHAR
STARTCHAR 0119
ENCODING 281
SWIDTH 250 0
DWIDTH 13 0
BBX 17 18 2 -6
BITMAP
01C000
06C000
08C000
188080
313F00
26C000
600000
600000
C00000
C00000
C00000
600000
1C0000
200000
400000
C00000
E00000
700000
ENDCHAR
STARTCHAR 011A
ENCODING 282
SWIDTH 788 0
DWIDTH 41 0
BBX 43 39 0 -1
BITMAP
000000004000
00000000C400
00000000C800
00000000D000
00000000E000
00000002C000
0000000C0000
000000100000
000000200000
000003FFFC00
00003FFFF800
0000F0400000
000300800000
000400800000
000801000000
001002000000
002002000000
006004000000
004008000000
00C008000000
00C010000000
00C020000000
00C07FFF8000
00407FE00000
000040000000
000080000020
000100000020
000200000020
000400000020
000800000040
3FF000000040
403C00000040
C04F00000080
C083C0000100
E100F0000300
7E003E000600
00000FE03800
000003FFF000
0000007F8000
ENDCHAR
STARTCHAR 011B
ENCODING 283
SWIDTH 250 0
DWIDTH 13 0
BBX 16 21 3 1
BITMAP
0180
0188
0190
01A0
01C0
0100
0000
0000
0000
0180
0780
0900
1101
327E
6580
6000
C000
C000
C000
C000
6000
ENDCHAR
STARTCHAR 011C
ENCODING 284
SWIDTH 538 0
DWIDTH 28 0
BBX 46 46 -10 -13
BITMAP
000000000100
000000000F00
000000000B00
000000001FF0
00000000E318
000000074304
000000188200
000000600000
000000800000
000001000000
000006000000
00000C000000
000018000000
0000180000E0
0000300001A0
000070000340
000060000640
0000E0000C80
0000E0001D00
0000E0001A00
0000E0003C00
0000E0007800
000070006000
00007000E000
00001C07C000
000007F98000
000000018000
000000030000
000000030000
000000060000
0000000C0000
000000080000
000000180000
000000100000
000000200000
000000400000
400000800000
400000800000
C00001000000
C00002000000
E00004000000
E00018000000
700020000000
7800C0000000
3F0300000000
0FFC00000000
ENDCHAR
STARTCHAR 011D
ENCODING 285
SWIDTH 230 0
DWIDTH 12 0
BBX 30 40 -12 -20
BITMAP
00000020
000001E0
00000260
00000460
00000860
00001060
00000000
00000000
00000000
000007FC
00001900
00002100
00004200
00008400
00018800
00011000
00032000
0003D000
00006000
00008000
00010000
00010000
00030000
00038000
0001C000
0001E000
0000F000
01007000
06003800
08001800
10001800
20001000
60001000
40002000
C0002000
C0004000
C0008000
E0030000
780C0000
1FF00000
ENDCHAR
STARTCHAR 011E
ENCODING 286
SWIDTH 538 0
DWIDTH 28 0
BBX 46 49 -10 -14
BITMAP
000000000400
000000000C20
000000000E40
000000000780
000000000000
000000000000
000000001FE0
00000001E038
000000060004
000000180004
000000600000
000000800000
000001000000
000006000000
00000C000000
000018000000
0000380000E0
0000300001A0
000070000340
000060000640
0000E0000C80
0000E0001D00
0000E0001A00
0000E0003400
0000E0007800
000070006000
00007000C000
00003C07C000
000007F98000
000000038000
000000030000
000000060000
000000060000
0000000C0000
000000080000
000000100000
000000100000
000000200000
000000400000
400000800000
400001000000
C00002000000
C00004000000
E00008000000
E00010000000
700020000000
7800C0000000
3F0300000000
0FFC00000000
ENDCHAR
STARTCHAR 011F
ENCODING 287
SWIDTH 230 0
DWIDTH 12 0
BBX 29 39 -12 -21
BITMAP
00000200
00000610
00000620
000003C0
00000000
00000000
00000000
00000000
000007F8
00001900
00002100
00004200
00008400
00018800
00011000
00032000
0003D000
00006000
00008000
00010000
00010000
00030000
00038000
0001C000
0001E000
0000F000
01007000
06003800
08001800
10001800
20001000
60001000
40002000
C0002000
C0004000
C0008000
E0030000
780C0000
1FF00000
ENDCHAR
STARTCHAR 0120
ENCODING 288
SWIDTH 538 0
DWIDTH 28 0
BBX 46 48 -10 -13
BITMAP
000000000180
000000000180
000000000000
000000000000
000000000000
000000001FE0
00000001E038
000000060004
000000180004
000000600000
000000800000
000001000000
000006000000
00000C000000
000018000000
0000380000E0
0000300001A0
000070000340
000060000640
0000E0000C80
0000E0001D00
0000E0001A00
0000E0003C00
0000E0007800
000070006000
00007000E000
00001C07C000
000007F98000
000000018000
000000030000
000000030000
000000060000
0000000C0000
000000080000
000000180000
000000100000
000000200000
000000400000
400000800000
400000800000
C00001000000
C00002000000
E00004000000
E00018000000
700020000000
7800C0000000
3F0300000000
0FFC00000000
ENDCHAR
STARTCHAR 0121
ENCODING 289
SWIDTH 230 0
DWIDTH 12 0
BBX 28 38 -12 -21
BITMAP
00000180
00000180
00000000
00000000
00000000
00000000
00000000
000007F0
00001900
00002200
00004200
00008400
00018800
00011000
00032000
0003D000
00006000
00008000
00010000
00010000
00030000
00038000
0001C000
0001E000
0000F000
01007000
06003800
08001800
10001800
20001000
60001000
40002000
C0002000
C0004000
C0008000
E0030000
780C0000
1FF00000
ENDCHAR
STARTCHAR 0122
ENCODING 290
SWIDTH 538 0
DWIDTH 28 0
BBX 47 47 -11 -15
BITMAP
0000000000C0
000000000100
000000000100
000000001FF0
00000000E30C
000000070306
000000180202
000000200000
000000C00000
000001000000
000002000000
000006000000
00000C000000
000018000060
000038000090
000030000120
000070000320
000060000640
000060000C80
0000E0001D00
0000E0001A00
000060003C00
000070003000
000030006000
00001800E000
00000F0FC000
000000F1C000
000000018000
000000030000
000000030000
000000060000
0000000C0000
0000000C0000
000000180000
000000100000
000000200000
800000400000
800000400000
800000800000
800001000000
800002000000
C00004000000
C00008000000
600030000000
700040000000
3E0380000000
0FFC00000000
ENDCHAR
STARTCHAR 0123
ENCODING 291
SWIDTH 230 0
DWIDTH 12 0
BBX 28 41 -12 -19
BITMAP
00000180
00000100
00000200
00000200
00000200
00000100
00000000
00000000
00000000
00000000
00000FF0
00003200
00006200
0000C400
00008400
00018800
00011000
00032000
0003D000
00006000
00008000
00010000
00010000
00030000
00038000
0001C000
0001E000
0000F000
01007000
06003800
08001800
10001800
20001000
60001000
40002000
C0002000
C0004000
C0008000
E0030000
780C0000
1FF00000
ENDCHAR
STARTCHAR 0124
ENCODING 292
SWIDTH 769 0
DWIDTH 40 0
BBX 47 38 1 -1
BITMAP
0000000000C0
0000000003C0
0000000004C0
0000000008C0
0000000010C0
0000000020C0
000000000000
00000002001E
000003FE0036
00007FFC0066
0000C00400C6
000200080084
000400080104
00040010020C
000800100618
000800200410
000800200860
000800401880
000800401300
000C00802C00
000000807000
00000103C000
0000013CC000
000003C08000
0000FE018000
001F04010000
01E008030000
070008030000
080010030000
100020020000
200040060000
400080060000
400100060000
C00600060000
E01C00070000
FFF000070000
7FE000038380
3F000001FC00
ENDCHAR
STARTCHAR 0125
ENCODING 293
SWIDTH 230 0
DWIDTH 12 0
BBX 39 43 -4 -6
BITMAP
000000043E
0000001CC6
0000002F02
000000CC00
000000BC00
0000014C00
0000008000
0000010000
0000010000
0000020000
0000040000
0000080000
0000080000
0000100000
0000200000
0000400000
0000400000
0000800000
0001800000
0001000000
0002000000
0006000000
0004000000
000C000000
0018000000
0010000000
0033000000
002F000000
0073000000
00C2000000
00C6000000
0184000000
010C000000
030C000000
0218000000
0610000000
0430000000
0060000000
0040000000
0180000000
0200000000
0C00000000
F000000000
ENDCHAR
STARTCHAR 0126
ENCODING 294
SWIDTH 769 0
DWIDTH 40 0
BBX 47 31 1 -1
BITMAP
00000002001E
000003FE0036
00007FFC0066
0000C00400C6
000200080184
00040008010C
00040010020C
000800100418
000800200C10
000800200820
000800407040
00080043B180
000C00BC2600
000007C05800
000079006000
000001038000
0000021C8000
000003E18000
00007C010000
001F84030000
03F008030000
0F0010030000
1C0020060000
100040060000
200040060000
400080060000
C00300060000
C00400070000
E00800070000
F03000038180
7FC00001FE00
ENDCHAR
STARTCHAR 0127
ENCODING 295
SWIDTH 230 0
DWIDTH 12 0
BBX 39 43 -4 -6
BITMAP
000000003E
00000000C6
0000000302
0000000402
0000001800
0000002000
0000004000
0000008000
0000010000
0000020000
0000020000
0000040000
0000080000
0000100000
0000100000
0000200000
0000400000
0000400000
0000800000
0001000000
001FF80000
0002000000
0006000000
000C000000
0008000000
0018000000
0033000000
0027000000
007B000000
0062000000
00C6000000
0186000000
0184000000
030C000000
0208000000
0610000000
0430000000
0020000000
0040000000
0080000000
0300000000
0C00000000
F000000000
ENDCHAR
STARTCHAR 0128
ENCODING 296
SWIDTH 365 0
DWIDTH 19 0
BBX 37 36 -1 1
BITMAP
0000000E08
0000003390
00000040E0
0000000000
0000000000
00000001C0
00000006C0
0000000880
0000001100
0000001E00
000000E000
0000072000
0000384000
0000C0C000
0001808000
0007018000
0006030000
000C030000
000C060000
000C060000
00040C0000
00001C0000
0000180000
0000380000
0000300000
0000600000
0000E00000
0000C00000
0001800000
0003000000
0002000000
0004000000
0008000000
C030000000
FCC0000000
FF00000000
ENDCHAR
STARTCHAR 0129
ENCODING 297
SWIDTH 173 0
DWIDTH 9 0
BBX 12 19 2 0
BITMAP
1C10
2610
4320
81C0
0000
0000
0000
0000
3C00
0C00
1800
1000
3010
2020
6040
4080
C100
C600
7800
ENDCHAR
STARTCHAR 012A
ENCODING 298
SWIDTH 365 0
DWIDTH 19 0
BBX 35 35 -1 0
BITMAP
00000003E0
0000000000
0000000000
0000000000
00000001C0
00000006C0
0000000880
0000001100
0000001E00
000000E000
0000072000
0000384000
0000C0C000
0001808000
0007018000
0006030000
000C030000
000C060000
000C060000
00040C0000
00001C0000
0000180000
0000380000
0000300000
0000600000
0000E00000
0000C00000
0001800000
0003000000
0002000000
0004000000
0008000000
C030000000
FCC0000000
FF00000000
ENDCHAR
STARTCHAR 012B
ENCODING 299
SWIDTH 173 0
DWIDTH 9 0
BBX 12 17 2 0
BITMAP
0780
0000
0000
0000
0000
0000
3C00
0C00
0800
1000
3010
2020
6040
4080
C100
C600
7800
ENDCHAR
STARTCHAR 012E
ENCODING 302
SWIDTH 365 0
DWIDTH 19 0
BBX 34 36 -1 -5
BITMAP
00000001C0
00000006C0
0000000880
0000001100
0000001E00
000000E000
0000072000
0000384000
0000C0C000
0001808000
0007018000
0006030000
000C030000
000C060000
000C060000
00040C0000
00001C0000
0000180000
0000380000
0000300000
0000600000
0000600000
0000C00000
0001800000
0003000000
0002000000
0004000000
0008000000
C030000000
FCC0000000
7F00000000
0800000000
1000000000
3000000000
3000000000
1C00000000
ENDCHAR
STARTCHAR 012F
ENCODING 303
SWIDTH 173 0
DWIDTH 9 0
BBX 14 25 0 -6
BITMAP
0010
0030
0020
0000
0000
0000
0000
0000
0F00
0300
0200
0400
0C04
0808
1810
1020
3040
3180
1E00
2000
4000
4000
C000
E000
7000
ENDCHAR
STARTCHAR 0130
ENCODING 304
SWIDTH 365 0
DWIDTH 19 0
BBX 33 36 -1 0
BITMAP
0000000180
0000000180
0000000000
0000000000
0000000000
0000000180
0000000780
0000000980
0000001300
0000001C00
000000E000
0000072000
0000384000
0000C0C000
0001808000
0007018000
0006030000
000C030000
000C060000
000C060000
00040C0000
00001C0000
0000180000
0000380000
0000300000
0000600000
0000E00000
0000C00000
0001800000
0003000000
0002000000
0004000000
0008000000
C030000000
FCC0000000
FF00000000
ENDCHAR
STARTCHAR 0131
ENCODING 305
SWIDTH 173 0
DWIDTH 9 0
BBX 12 11 2 0
BITMAP
3C00
0C00
0800
1000
3010
2020
6040
4080
C100
C600
7800
ENDCHAR
STARTCHAR 0132
ENCODING 306
SWIDTH 634 0
DWIDTH 33 0
BBX 45 40 -1 -11
BITMAP
000000038018
0000000D8060
0000001100C0
0000002201C0
0000003C0380
000001C40D80
00000EC7F300
00003083C700
0000C1800600
000303000C00
000603000C00
000C06001800
00180E001800
00180C003000
00181C002000
000818006000
00003000C000
00003000C000
000060018000
000060010000
0000C0030000
000180020000
000300040180
0002000C3E00
0004000FC000
000800380000
C03000300000
FCC000200000
FF0000400000
000000400000
000000800000
000001000000
000002000000
000004000000
000004000000
008008000000
01C030000000
00E0C0000000
00FF80000000
003C00000000
ENDCHAR
STARTCHAR 0133
ENCODING 307
SWIDTH 307 0
DWIDTH 16 0
BBX 31 43 -11 -24
BITMAP
00000218
00000618
00000410
00000000
00000000
00000000
00000000
00000000
0001F3C0
00006080
00004180
0000C100
00018300
00010206
00030608
00020C10
00061420
00062840
0003C880
00001300
00001400
00002800
00003000
00004000
0000C000
00038000
00058000
00090000
00330000
00420000
00860000
01040000
020C0000
0C180000
18180000
10300000
20300000
40600000
80C00000
80800000
81000000
C6000000
78000000
ENDCHAR
STARTCHAR 0134
ENCODING 308
SWIDTH 288 0
DWIDTH 15 0
BBX 34 48 -8 -8
BITMAP
0000000200
0000000600
0000001E00
0000002600
0000004600
0000000600
0000000400
0000000040
0000000180
0000000300
0000200300
0000200E00
0000703E00
00007FCC00
00003E1C00
0000001800
0000003800
0000003000
0000003000
0000006000
0000006000
000000C000
000000C000
0000018000
0000018000
0000030000
0000020000
0000060000
0000040000
00000C0000
0000081E00
000009E000
00001E0000
0000700000
0000600000
0000400000
0000C00000
0000800000
0001000000
0003000000
0002000000
0004000000
0008000000
8010000000
C020000000
E0C0000000
FF80000000
3E00000000
ENDCHAR
STARTCHAR 0135
ENCODING 309
SWIDTH 153 0
DWIDTH 8 0
BBX 32 44 -18 -24
BITMAP
00000004
0000000C
0000003C
0000004C
0000008C
0000010C
00000008
00000000
00000000
00000180
00000180
00000100
00000300
00000201
00000202
00000404
00000408
00000810
00000860
00001880
00001100
00001200
00003400
00003800
00006000
00004000
0001C000
00028000
000D8000
00130000
00230000
00C60000
01060000
020C0000
041C0000
08180000
10380000
20300000
40600000
80C00000
80C00000
81800000
C6000000
7C000000
ENDCHAR
STARTCHAR 0136
ENCODING 310
SWIDTH 615 0
DWIDTH 32 0
BBX 56 38 -8 -9
BITMAP
000000408000FE
00000041000703
000000E1001801
0000007E006001
00000002018000
00000004060000
00000004080000
00000008100000
00000008600000
00000010800000
00000011000000
00000026000000
00000028000000
00000050000000
00000060000000
00000040000000
000000E0000000
00000160000000
00000260000000
00000220000000
00000420000000
00000830000000
00000830000000
00001010000000
00002018000000
00004008000000
0000800C000000
80010006000000
C0020006000000
E0040003800000
70180000C03000
7FE000003FC000
1F800300000000
00000100000000
00000300000000
00000300000000
00000600000000
00000800000000
ENDCHAR
STARTCHAR 0137
ENCODING 311
SWIDTH 269 0
DWIDTH 14 0
BBX 26 41 2 -11
BITMAP
000003C0
00000C00
00003000
00004000
00008000
00010000
00020000
00020000
00040000
00080000
00100000
00100000
00200000
00400000
00400000
00800000
01000000
01000000
02000000
02000000
04F00000
0B300000
04200000
08400000
11800000
1F000000
33000000
22000000
62000000
46040000
44080000
0C080000
0C100000
1C600000
37800000
30000000
10000000
30000000
20000000
40000000
80000000
ENDCHAR
STARTCHAR 0139
ENCODING 313
SWIDTH 961 0
DWIDTH 50 0
BBX 47 36 2 -5
BITMAP
000000000040
000000000080
000000003F00
00000000C580
0000000118C0
0000000600C0
0000000C00C0
0000001800C0
0000001000C0
0000002000C0
000000400080
000000C00080
000000800180
000001000100
000002000200
000002000200
000004000400
000004000800
000008001000
000010002000
07E01000C000
187FF0070000
20305C000000
40008E000000
400087000000
C00101800000
C00200E00000
E00400700000
700800380000
3F70001E0000
1FC0000F0000
00000007C002
00000001F004
00000000FC18
000000003FE0
000000000FC0
ENDCHAR
STARTCHAR 013A
ENCODING 314
SWIDTH 192 0
DWIDTH 10 0
BBX 28 38 2 0
BITMAP
00000200
00000400
00000800
00002000
000043E0
00008C30
00011020
00006000
00004000
00008000
00010000
00020000
00060000
00040000
00080000
00180000
00100000
00200000
00600000
00C00000
00800000
01800000
03000000
03000000
06000000
04000000
0C000000
08000000
18000000
30000000
30000000
60080000
60100000
60200000
C0400000
C0800000
C3000000
7C000000
ENDCHAR
STARTCHAR 013B
ENCODING 315
SWIDTH 961 0
DWIDTH 50 0
BBX 48 39 2 -10
BITMAP
000000003F00
00000000C380
0000000101C0
0000000600C0
0000000C00C0
0000001800C0
0000003000C0
0000002000C0
000000400080
000000C00080
000000800100
000001000100
000003000200
000002000400
000004000800
000004001000
000008002000
000010004000
07E7D0018000
187870020000
20205C000000
40008E000000
400083000000
C00101C00000
C00200E00000
E00400700000
7008003C0000
3F70001E0000
1FC0000F8000
00000003C001
00000001F002
000004007E0C
00000C003FF0
00000C000FC0
00000C000000
000008000000
000010000000
000020000000
000040000000
ENDCHAR
STARTCHAR 013C
ENCODING 316
SWIDTH 192 0
DWIDTH 10 0
BBX 29 43 1 -10
BITMAP
000001F0
00000618
00000810
00003000
00002000
00004000
00008000
00010000
00030000
00020000
00040000
000C0000
00080000
00100000
00300000
00600000
00400000
00C00000
01800000
01800000
03000000
02000000
06000000
04000000
0C000000
18000000
18000000
30040000
30080000
30100000
60200000
60400000
61800000
3E000000
00000000
00000000
20000000
20000000
20000000
20000000
20000000
40000000
80000000
ENDCHAR
STARTCHAR 013D
ENCODING 317
SWIDTH 961 0
DWIDTH 50 0
BBX 48 34 2 -6
BITMAP
000000003F00
00000000C384
0000000101C6
0000000600C6
0000000C00C4
0000001800C4
0000003000C8
0000002000D0
0000004000A0
000000C00080
000000800100
000001000100
000003000200
000002000400
000004000800
000004001000
000008002000
000010004000
07E7D0018000
187870020000
20205C000000
40008E000000
400083000000
C00101C00000
C00200E00000
E00400700000
7008003C0000
3F70001E0000
1FC0000F8000
00000003C001
00000001F002
000000007E0C
000000003FF0
000000000FC0
ENDCHAR
STARTCHAR 013E
ENCODING 318
SWIDTH 211 0
DWIDTH 11 0
BBX 26 32 2 0
BITMAP
00000F80
000031C0
00004080
0000B000
00013000
00021000
00041000
00042000
00084000
00108000
00310000
00200000
00400000
00C00000
00800000
01800000
03000000
02000000
06000000
04000000
0C000000
18000000
18000000
30000000
30000000
60080000
60100000
60200000
C0400000
C0800000
C3000000
7C000000
ENDCHAR
STARTCHAR 013F
ENCODING 319
SWIDTH 961 0
DWIDTH 50 0
BBX 49 34 2 -6
BITMAP
000000000C0000
00000000778000
0000000181C000
0000000200C000
0000000400C000
0000000800C000
0000001000C000
0000002000C000
0000004000C000
000000C0008000
00000080010000
00000100010000
00000300020000
00000200040000
00000400080000
00000400300000
00000800406000
0FC01003804000
30601000000000
406FE000000000
40307000000000
80005C00000000
80008E00000000
80010380000000
C00201C0000000
C00400F0000000
70080078000000
3E30003E000000
1FC0000F000080
00000007C00100
00000001F00200
00000000FE0C00
000000003FF800
000000000FE000
ENDCHAR
STARTCHAR 0140
ENCODING 320
SWIDTH 211 0
DWIDTH 11 0
BBX 26 32 2 -1
BITMAP
00000200
00001DC0
000060C0
00008000
00010000
00020000
00020000
00040000
00040000
00080000
00100000
00300000
00200000
00400000
00C30000
00830000
01800000
03000000
02000000
06000000
0C000000
0C000000
18000000
18000000
30000000
30000000
60180000
60100000
60600000
E0800000
E1000000
7E000000
ENDCHAR
STARTCHAR 0141
ENCODING 321
SWIDTH 961 0
DWIDTH 50 0
BBX 48 34 2 -6
BITMAP
000000003F00
00000000C380
0000000101C0
0000000200C0
0000000400C0
0000000800C0
0000001000C0
0000002000C0
000000600080
000000400080
000000800180
000001800100
000001180200
000002E00200
000003800400
00000C000800
000018001000
07C058006000
187010038000
203FF0070000
60305C000000
40008E000000
C00083000000
C00101C00000
C00200E00000
E00400700000
7008003C0000
3F70001E0000
1FC0000F8000
00000003C001
00000001F002
000000007E0C
000000003FF0
000000000FC0
ENDCHAR
STARTCHAR 0142
ENCODING 322
SWIDTH 211 0
DWIDTH 11 0
BBX 24 34 2 1
BITMAP
000007
00001B
000023
000042
0000C2
000184
000304
000308
000610
000C10
000C20
001840
001080
003100
006100
004200
00CC00
009000
01A000
034000
038000
060000
046000
0F8000
180000
F00000
300000
200800
601000
602000
C04000
C18000
C20000
7C0000
ENDCHAR
STARTCHAR 0143
ENCODING 323
SWIDTH 788 0
DWIDTH 41 0
BBX 46 43 2 -5
BITMAP
000000000180
000000000200
000000000400
000000000800
000000003000
000000004000
000000000000
000000000000
000000000070
0000000003FC
000000000C1C
00000000300C
00000000C00C
00000701000C
00003F02000C
0000C70C0008
000306100010
000406200020
00180C400020
002008800040
004009000080
008012000100
030014000200
060028000400
0C0050000800
080060001000
1800C0003000
300080006000
20018000C000
600300018000
600200030000
C00600060000
C00C000C0000
C01C000C0000
C01800180000
C03800380000
C03000300000
400000700000
400000700000
200000700000
200000780300
1000003C1C00
0E00001FE000
ENDCHAR
STARTCHAR 0144
ENCODING 324
SWIDTH 250 0
DWIDTH 13 0
BBX 17 21 1 -1
BITMAP
000080
000100
000200
000C00
001000
002000
000000
000000
000000
0E6000
05E000
064000
0C4000
088000
118000
310100
230600
620800
461000
C66000
878000
ENDCHAR
STARTCHAR 0145
ENCODING 325
SWIDTH 788 0
DWIDTH 41 0
BBX 46 39 2 -10
BITMAP
000000000070
0000000003FC
000000000C1C
00000000300C
00000000C00C
00000701000C
00003F02000C
0000C70C0008
000306100010
000406200020
00180C400020
002008800040
004009000080
008012000100
030014000200
060028000400
0C0050000800
080060001000
1800C0003000
300080006000
20018000C000
600300018000
600200030000
C00600060000
C00C000C0000
C01C000C0000
C01800180000
C03800380000
C03000300000
400000700000
400000700000
200060700000
200060780300
1000603C1C00
0E00601FE000
000040000000
000040000000
000080000000
000300000000
ENDCHAR
STARTCHAR 0146
ENCODING 326
SWIDTH 250 0
DWIDTH 13 0
BBX 16 20 1 -10
BITMAP
0660
05E0
0640
0C40
0880
1980
1101
3306
2208
2610
6660
4780
1800
1800
1800
1800
1000
2000
4000
8000
ENDCHAR
STARTCHAR 0147
ENCODING 327
SWIDTH 788 0
DWIDTH 41 0
BBX 46 43 2 -5
BITMAP
000000001800
000000001880
000000001900
000000001A00
000000001C00
000000001000
000000000000
000000000000
000000000070
0000000003FC
000000000C1C
00000000300C
00000000C00C
00000701000C
00003F02000C
0000C70C0008
000306100010
000406200020
00180C400020
002008800040
004009000080
008012000100
030014000200
060028000400
0C0050000800
080060001000
1800C0003000
300080006000
20018000C000
600300018000
600200030000
C00600060000
C00C000C0000
C01C000C0000
C01800180000
C03800380000
C03000300000
400000700000
400000700000
200000700000
200000780300
1000003C1C00
0E00001FE000
ENDCHAR
STARTCHAR 0148
ENCODING 328
SWIDTH 250 0
DWIDTH 13 0
BBX 16 20 1 1
BITMAP
0061
0062
0064
0068
0070
0040
0000
0000
0000
0E60
05E0
0A40
0CC0
1880
1180
2101
6306
4608
C630
8640
ENDCHAR
STARTCHAR 0149
ENCODING 329
SWIDTH 250 0
DWIDTH 13 0
BBX 17 24 1 -1
BITMAP
030000
030000
010000
010000
010000
020000
040000
080000
000000
000000
000000
0E0000
046000
0DE000
0A6000
1C4000
18C000
308080
218100
610200
C30C00
C21000
036000
018000
ENDCHAR
STARTCHAR 014C
ENCODING 332
SWIDTH 596 0
DWIDTH 31 0
BBX 33 33 3 0
BITMAP
0000007C00
0000000000
0000000000
0000000000
000000FC00
0000070600
0000780300
0001B00180
0006600180
0018600180
0020C00180
0040C00180
0180C00100
0300400100
0600000100
0400000200
0C00000200
1800000400
3800000400
3000000800
7000001000
6000001000
6000002000
E000004000
E000008000
E000010000
E000020000
E000040000
E000180000
7000200000
7800C00000
3E07000000
0FF8000000
ENDCHAR
STARTCHAR 014D
ENCODING 333
SWIDTH 250 0
DWIDTH 13 0
BBX 18 17 2 0
BITMAP
00F800
000000
000000
000000
000000
01E040
0F2180
122200
122C00
225000
23E000
408000
C08000
C10000
C20000
C40000
780000
ENDCHAR
STARTCHAR 014E
ENCODING 334
SWIDTH 596 0
DWIDTH 31 0
BBX 33 34 3 0
BITMAP
0000002000
0000006080
0000007100
0000003E00
0000000000
000000FC00
0000070600
0000380300
0001F00180
0006600180
0018600180
0020C00180
0040C00180
0180C00100
0300400100
0600000100
0400000200
0C00000200
1800000400
3800000400
3000000800
7000001000
6000001000
6000002000
E000004000
E000008000
E000010000
E000020000
E000040000
E000180000
7000200000
7800C00000
3E07000000
0FF8000000
ENDCHAR
STARTCHAR 014F
ENCODING 335
SWIDTH 250 0
DWIDTH 13 0
BBX 18 18 2 1
BITMAP
038400
03C800
01F000
000000
000000
000000
01E040
0F2180
122200
122C00
225000
23E000
408000
C08000
C10000
C20000
C40000
780000
ENDCHAR
STARTCHAR 0150
ENCODING 336
SWIDTH 596 0
DWIDTH 31 0
BBX 33 36 3 1
BITMAP
0000000480
0000000900
0000001200
0000002400
0000000400
0000000000
0000000000
000000FC00
0000070600
0000780300
0001B00180
0006600180
0018600180
0020C00180
0040C00180
0180C00100
0300400100
0600000100
0400000200
0C00000200
1800000400
3800000400
3000000800
7000001000
6000001000
6000002000
E000004000
E000008000
E000010000
E000020000
E000040000
E000180000
7000200000
7800C00000
3E07000000
0FF8000000
ENDCHAR
STARTCHAR 0151
ENCODING 337
SWIDTH 250 0
DWIDTH 13 0
BBX 16 20 2 1
BITMAP
0024
0044
0048
0090
0100
0000
0000
0000
01E0
0F23
1224
1228
2270
23C0
4080
C080
C100
C200
C400
7800
ENDCHAR
STARTCHAR 0152
ENCODING 338
SWIDTH 750 0
DWIDTH 39 0
BBX 41 28 3 0
BITMAP
00000F87E000
000070187000
000180603800
000600C01800
000800C01800
003001801800
006001801000
00C001801000
018001803000
030000802000
060000402000
0C0001FC4000
0C0006008000
180018008000
300030010000
300060020000
7000C0040080
600180080080
600180100100
E00380200100
E00380400200
E00380800400
E00383000800
E00384001000
7001D8002000
7801E000C000
3E037C0F0000
0FFC1FF00000
ENDCHAR
STARTCHAR 0153
ENCODING 339
SWIDTH 307 0
DWIDTH 16 0
BBX 18 12 2 0
BITMAP
03C700
065B00
086200
184400
308800
20B000
61C000
4100C0
C30100
C70200
CB0C00
F1F000
ENDCHAR
STARTCHAR 0154
ENCODING 340
SWIDTH 711 0
DWIDTH 37 0
BBX 56 46 -1 -8
BITMAP
00000000040000
00000000080000
00000000100000
00000000200000
00000000C00000
00000005000000
00000008000000
00000008000000
000001FFC00000
00000E10F80000
000030203C0000
000060201E0000
000080400E0000
000100400E0000
000200800E0000
000600800E0000
000401000E0000
000C01001C0000
00080200180000
00080200300000
00180400600000
00180401C00000
001808FE000000
001808E0000000
000C1060000000
000C1070000000
00062070000000
00074030000000
00034038000000
00018018000000
0001801C000000
0002801C000000
0004800E000000
0018800F000000
00610007000000
03830007800000
FFFC0003C00000
00000001C00000
00000001E00000
00000000F00000
00000000780000
000000003C0000
000000001F0001
00000000078006
0000000001F038
00000000003FC0
ENDCHAR
STARTCHAR 0155
ENCODING 341
SWIDTH 211 0
DWIDTH 11 0
BBX 16 21 2 -1
BITMAP
0001
0002
0004
0008
0030
0040
0080
0000
0000
0010
7C60
0CC0
0F40
0CC0
08C0
1038
2000
6000
4000
C000
8000
ENDCHAR
STARTCHAR 0156
ENCODING 342
SWIDTH 711 0
DWIDTH 37 0
BBX 57 42 -1 -10
BITMAP
0000000800000000
0000000800000000
0000001000000000
000001FFC0000000
00000E20F8000000
000030203C000000
000040401E000000
000180400E000000
000100400E000000
000200800E000000
000600800E000000
000401000E000000
000C01001C000000
0008020018000000
0008020030000000
00180400E0000000
0018040380000000
001809FE00000000
001808C000000000
000C10E000000000
000C10E000000000
0006207000000000
0007407000000000
0003403800000000
0001803800000000
0001803C00000000
0002801C00000000
0004801E00000000
0018800E00000000
0061000F00000000
0383000780000000
FFFC0003C0000000
00000003C0000000
00000001E0000000
00000C00F0000000
00000C0078000000
00000C003E000000
00000C001F000080
0000080007C00300
0000080001F01C00
00001000003FE000
0000200000000000
ENDCHAR
STARTCHAR 0157
ENCODING 343
SWIDTH 211 0
DWIDTH 11 0
BBX 13 20 2 -9
BITMAP
0010
7C60
0CC0
0F40
0CC0
08C0
1038
2000
6000
4000
C000
8000
0000
2000
6000
2000
2000
6000
4000
8000
ENDCHAR
STARTCHAR 0158
ENCODING 344
SWIDTH 711 0
DWIDTH 37 0
BBX 57 47 -1 -9
BITMAP
0000000040000000
00000000C2000000
00000000CC000000
00000000D0000000
00000000E0000000
00000000C0000000
0000000480000000
0000000400000000
0000000800000000
000001FFE0000000
00000E10F8000000
000038103C000000
000060201E000000
000080200E000000
000100400E000000
000200400E000000
000600800E000000
000400800E000000
000C01001C000000
0008010018000000
0008020038000000
0018020060000000
00180401C0000000
001804FE00000000
0018086000000000
000C107000000000
000C107000000000
0006203000000000
0007403800000000
0003401800000000
0001801C00000000
0001801C00000000
0002800E00000000
0004800F00000000
0018800700000000
0061000780000000
03830003C0000000
FFFC0001C0000000
00000001E0000000
00000000F0000000
0000000078000000
000000003C000000
000000001E000000
000000000F000080
0000000003C00300
0000000000F81C00
00000000001FE000
ENDCHAR
STARTCHAR 0159
ENCODING 345
SWIDTH 211 0
DWIDTH 11 0
BBX 14 20 2 0
BITMAP
0084
0088
0090
00A0
00C0
0080
0000
0000
0010
7C60
0CC0
0F40
0CC0
08C0
1038
2000
6000
4000
C000
8000
ENDCHAR
STARTCHAR 015A
ENCODING 346
SWIDTH 576 0
DWIDTH 30 0
BBX 35 41 1 -4
BITMAP
0000000020
0000000040
0000000080
0000000300
0000000400
0000000800
0000000000
0000000000
000001E000
00000FFC00
0000100E00
0000600600
0000800200
0000800200
0001000200
0001000000
0001000000
0001000000
0001800000
0001C00000
0001E00000
0000F00000
00007C0000
00003E0000
00000F8000
000007C000
020001C000
040000C000
0400006000
0800006000
0800004000
1000004000
3000004000
3000004000
5000008000
5000010000
5800010000
9C00060000
0E00180000
07FBE00000
03FF000000
ENDCHAR
STARTCHAR 015B
ENCODING 347
SWIDTH 211 0
DWIDTH 11 0
BBX 20 26 -2 -4
BITMAP
000010
000020
000040
000100
000200
000400
000800
000000
000200
000C00
000800
001800
003800
005800
009800
011000
023000
043000
082000
102000
206000
C04000
C0C000
C18000
E30000
7C0000
ENDCHAR
STARTCHAR 015C
ENCODING 348
SWIDTH 576 0
DWIDTH 30 0
BBX 33 41 1 -4
BITMAP
0000000100
0000000700
0000000900
0000001180
0000002180
0000002100
0000000000
0000000000
000001E000
00000FFC00
0000100E00
0000600600
0000800200
0000800200
0001000200
0001000000
0001000000
0001000000
0001800000
0001C00000
0001E00000
0000F00000
00007C0000
00003E0000
00000F8000
000007C000
020001C000
040000C000
0400006000
0800006000
0800004000
1000004000
3000004000
3000004000
5000008000
5000010000
5800010000
9C00060000
0E00180000
07FBE00000
03FF000000
ENDCHAR
STARTCHAR 015D
ENCODING 349
SWIDTH 211 0
DWIDTH 11 0
BBX 17 25 -2 -3
BITMAP
000180
000780
000980
001180
002180
000180
000000
000200
000C00
000800
001800
003800
005800
009800
011000
023000
043000
083000
102000
206000
C04000
C0C000
C18000
E30000
7C0000
ENDCHAR
STARTCHAR 015E
ENCODING 350
SWIDTH 576 0
DWIDTH 30 0
BBX 31 40 1 -11
BITMAP
000001E0
00000FFC
0000100E
00006006
00008002
00008002
00010002
00010000
00010000
00010000
00018000
0001C000
0001E000
0000F000
00007C00
00003E00
00000F80
000007C0
020001C0
040000C0
04000060
08000060
08000040
10000040
30000040
30000040
50000080
50000100
58000100
9C000600
0E001800
07FBE000
03FF0000
00020000
00040000
00070000
00020000
00040000
00080000
00100000
ENDCHAR
STARTCHAR 015F
ENCODING 351
SWIDTH 211 0
DWIDTH 11 0
BBX 14 23 -2 -10
BITMAP
0004
0018
0018
0038
0058
00B0
0130
0230
0430
0820
1060
2040
C040
C080
C180
E300
7C00
0800
1C00
0C00
0800
1000
6000
ENDCHAR
STARTCHAR 0160
ENCODING 352
SWIDTH 576 0
DWIDTH 30 0
BBX 34 41 1 -4
BITMAP
0000000800
0000000840
0000000880
0000000900
0000000A00
0000000C00
0000000000
0000000000
000001E000
00000FFC00
0000100E00
0000600600
0000800200
0000800200
0001000200
0001000000
0001000000
0001000000
0001800000
0001C00000
0001E00000
0000F00000
00007C0000
00003E0000
00000F8000
000007C000
020001C000
040000C000
0400006000
0800006000
0800004000
1000004000
3000004000
3000004000
5000008000
5000010000
5800010000
9C00060000
0E00180000
07FBE00000
03FF000000
ENDCHAR
STARTCHAR 0161
ENCODING 353
SWIDTH 211 0
DWIDTH 11 0
BBX 17 26 -2 -4
BITMAP
000400
000C00
000C80
000D00
000E00
000C00
000800
000000
000000
000800
001800
001800
003000
005000
009000
013000
023000
042000
082000
106000
204000
C04000
C08000
C10000
E20000
7C0000
ENDCHAR
STARTCHAR 0162
ENCODING 354
SWIDTH 557 0
DWIDTH 29 0
BBX 52 45 1 -12
BITMAP
00000000080030
00000000100030
00000000100020
00001FF02000C0
0000FFFF200100
0003FFFFFFFE00
0007E000800000
000F0000800000
001C0001000000
00380001000000
00300002000000
00600002000000
00400004000000
00400004000000
00800008000000
00800008000000
00800010000000
00000010000000
00000020000000
00000040000000
00000040000000
00000080000000
00000080000000
20000100000000
40000200000000
40000200000000
40000400000000
C0000800000000
C0001000000000
E0002000000000
E0004000000000
78008000000000
7E030000000000
3FFC0000000000
0FF00000000000
00000000000000
00000000000000
00000000000000
00600000000000
00600000000000
00400000000000
00400000000000
00800000000000
00800000000000
01000000000000
ENDCHAR
STARTCHAR 0163
ENCODING 355
SWIDTH 211 0
DWIDTH 11 0
BBX 19 26 1 -9
BITMAP
003000
002000
006000
00C000
008000
018000
1FFFE0
030000
048000
0C8000
088000
188000
308000
310000
620000
640000
380000
000000
000000
200000
200000
200000
200000
200000
400000
800000
ENDCHAR
STARTCHAR 0164
ENCODING 356
SWIDTH 557 0
DWIDTH 29 0
BBX 52 44 1 -4
BITMAP
00000000020000
00000000061000
00000000062000
00000000064000
00000000078000
00000000060000
00000000040000
00000000000000
00000000000000
00000000080030
00000000100030
00000000100020
00001FF0200040
0000FFFFA00180
0003FFFFFFFE00
0007E000400000
000F0000800000
001C0000800000
00380001000000
00300001000000
00600002000000
00400002000000
00400004000000
00800004000000
00800008000000
00800010000000
00000010000000
00000020000000
00000020000000
00000040000000
000000C0000000
00000080000000
20000100000000
40000100000000
40000200000000
40000400000000
C0000800000000
C0001000000000
E0001000000000
F0002000000000
7800C000000000
7E030000000000
3FFC0000000000
0FF00000000000
ENDCHAR
STARTCHAR 0165
ENCODING 357
SWIDTH 230 0
DWIDTH 12 0
BBX 18 21 2 1
BITMAP
000300
000300
000300
000200
006200
004400
00C800
018000
010000
030000
3FFFC0
060000
090000
190000
110000
310000
610000
620000
C40000
C80000
700000
ENDCHAR
STARTCHAR 0166
ENCODING 358
SWIDTH 769 0
DWIDTH 40 0
BBX 47 32 5 -2
BITMAP
0000000000FE
000000000702
000000003804
0003FFFFFFF8
001C00040000
006000180000
018000200000
020000400000
040001800000
040002000000
08000C000000
100018000000
300030000000
2007EF800000
6000E0000000
4001C0000000
C00180000000
C00380000000
800700000200
800700000200
000E00000200
000E00000400
000E00000400
000C00000800
000C00001000
000C00002000
000C00004000
000C00018000
000600020000
0002000C0000
000180F00000
00007F000000
ENDCHAR
STARTCHAR 0167
ENCODING 359
SWIDTH 211 0
DWIDTH 11 0
BBX 16 18 1 0
BITMAP
0010
0020
0040
0080
0080
0100
0100
3FFF
0400
0C00
0800
FFFC
1000
3000
3000
7020
70C0
7F00
ENDCHAR
STARTCHAR 0168
ENCODING 360
SWIDTH 865 0
DWIDTH 45 0
BBX 48 40 2 -5
BITMAP
000000001C20
000000002420
000000004240
0000000041C0
000000000000
000000000000
000000000000
00001FC00003
000061E00006
000180E00004
00060060000C
000800600018
003000400010
004000C00020
008000C00040
010001800080
020001000100
040003000300
040002000600
080004000600
08000C001C00
100008002400
100010004800
200030008800
200020011000
600040021000
4000C0043000
400180083000
400180302000
C00300406000
C00300806008
C00703006008
C00704006010
C007F8006010
600380007020
600000007040
300000003880
180000001F00
0C0000000000
038000000000
ENDCHAR
STARTCHAR 0169
ENCODING 361
SWIDTH 288 0
DWIDTH 15 0
BBX 16 19 2 0
BITMAP
0061
01A1
0212
020C
0000
0000
0000
0F10
3110
C130
0260
0660
0CC0
19C0
3180
6782
C904
9108
A0B0
ENDCHAR
STARTCHAR 016A
ENCODING 362
SWIDTH 865 0
DWIDTH 45 0
BBX 48 38 2 -5
BITMAP
000000001E00
000000000000
000000000000
000000000000
000000000000
00001FC00003
000061E00006
000180E00004
000600600008
000800600018
003000400010
004000C00020
008000C00040
010001800080
020001000100
040003000300
040002000200
080004000E00
08000C001400
100008002400
100010004800
200030008800
200020011000
600040021000
4000C0043000
400180083000
400180302000
C00300406000
C00300806008
C00703006008
C00704006010
C007F8006010
6003C0007020
600000007040
300000003880
180000001F00
0C0000000000
038000000000
ENDCHAR
STARTCHAR 016B
ENCODING 363
SWIDTH 288 0
DWIDTH 15 0
BBX 17 17 2 0
BITMAP
007800
000000
000000
000000
000000
0F0000
311800
C13000
023000
066000
0CE000
18C000
318080
678100
C90200
910400
A09800
ENDCHAR
STARTCHAR 016C
ENCODING 364
SWIDTH 865 0
DWIDTH 45 0
BBX 48 40 2 -5
BITMAP
000000002000
000000006000
000000007300
000000003C00
000000000000
000000000000
000000000000
00001FC00003
000061E00006
000180E00004
000600600008
000800600010
003000400020
004000C00020
008000C00040
010001800080
020001000100
040003000300
040002000600
080004000A00
08000C001400
100008002400
100010004800
200030008800
200020011000
600040021000
4000C0043000
400180083000
400180302000
C00300406000
C00300806008
C00703006008
C00704006010
C007F8006010
600380007020
600000007040
300000003880
180000001F00
0C0000000000
038000000000
ENDCHAR
STARTCHAR 016D
ENCODING 365
SWIDTH 288 0
DWIDTH 15 0
BBX 16 18 2 1
BITMAP
0100
0198
00E0
0000
0000
0000
0F00
3130
C120
0260
06C0
0CC0
1980
3381
6502
C904
9108
A0B0
ENDCHAR
STARTCHAR 016E
ENCODING 366
SWIDTH 865 0
DWIDTH 45 0
BBX 48 43 2 -5
BITMAP
000000001E00
000000003100
000000006100
000000006100
000000006200
000000003400
000000000800
000000000000
000000000000
000000000000
00001FC00003
000061E00006
000180E00004
000600600008
000800600010
003000400010
004000C00020
008000C00040
010001800080
020001000100
040003000100
040002000600
080004000E00
08000C001400
100008002C00
100010004800
200030008800
200020011000
600040021000
4000C0043000
400180083000
400180302000
C00300406000
C00301806008
C00702006008
C0070C006010
C007F0006010
600380007020
600000007040
300000003880
180000001F00
0C0000000000
038000000000
ENDCHAR
STARTCHAR 016F
ENCODING 367
SWIDTH 288 0
DWIDTH 15 0
BBX 17 21 2 0
BITMAP
001C00
002200
004200
004200
004400
002800
001000
000000
000000
0F0000
311800
C13000
023000
066000
0CE000
18C000
318080
678100
C90200
910400
A09800
ENDCHAR
STARTCHAR 0170
ENCODING 368
SWIDTH 865 0
DWIDTH 45 0
BBX 48 40 2 -5
BITMAP
000000000240
000000000240
000000000480
000000000900
000000001200
000000000000
000000000000
00001FC00003
000061E00006
000180E00004
000600600008
000800600018
003000400010
004000C00020
008000C00040
010001800080
020001000100
040003000300
040002000200
080004000E00
08000C001400
100008002400
100010004800
200030008800
200020011000
600040021000
4000C0043000
400180083000
400180302000
C00300406000
C00300806008
C00703006008
C00704006010
C007F8006010
6003C0007020
600000007040
300000003880
180000001F00
0C0000000000
038000000000
ENDCHAR
STARTCHAR 0171
ENCODING 369
SWIDTH 288 0
DWIDTH 15 0
BBX 15 20 2 1
BITMAP
0026
0024
0048
0090
0120
0000
0000
0000
0F20
3120
C160
0260
06C0
0DC0
1980
3380
6502
C904
9108
A0B0
ENDCHAR
STARTCHAR 0172
ENCODING 370
SWIDTH 865 0
DWIDTH 45 0
BBX 46 36 2 -7
BITMAP
00001FC00004
000061E0000C
000180E00008
000600600010
000800600030
003000400020
004000C00040
008000C00080
010001800100
020001000100
040003000600
040002000E00
080004001400
08000C002C00
100008002800
100010005800
200030009800
200020011000
600040063000
4000C0083000
400180103000
400180202000
C00300406000
C00301806010
C00702006010
C0070C006020
C007F0006020
600380007040
600000007080
300000003900
180000001E00
0C0000000800
038000001000
000000002000
000000002000
000000001800
ENDCHAR
STARTCHAR 0173
ENCODING 371
SWIDTH 288 0
DWIDTH 15 0
BBX 17 18 2 -6
BITMAP
1C0000
321800
C23000
043000
086000
10E000
10C000
218080
478100
890200
910400
A09800
406000
030000
040000
0C0000
0C0000
070000
ENDCHAR
STARTCHAR 0174
ENCODING 372
SWIDTH 846 0
DWIDTH 44 0
BBX 77 46 1 -6
BITMAP
00000000000040000000
000000000000C0000000
000000000003C0000000
000000000004C0000000
000000000008C0000000
000000000010C0000000
00000000000080001F80
0000000000000000FFE0
0000000000000003FFF0
000000000004000F00F0
00000000000800180038
00000000401800600018
00000003803800800018
0000001E00F003000018
000000E3013004000010
00000306027008000010
00000C06046010000020
0000700E086020000000
0001800C1060C0000000
0006001C20C100000000
0008001840C200000000
0030003880C400000000
00400031018800000000
00800062018800000000
03000064011000000000
06000048032000000000
0C0000D0034000000000
1C0000A0028000000000
18000140070000000000
30000140050000000000
70000280060000000000
600003000C0000000000
600006000C0000000000
C0000C00080000000000
C0000800100000000000
C0001800300000000000
C0003000200000000000
C0006000600000000000
C0006000C00000000000
4000C000800000000000
60000000000000000000
20000000000000000000
10000000000000000000
08000000000000000000
06000000000000000000
01000000000000000000
ENDCHAR
STARTCHAR 0175
ENCODING 373
SWIDTH 307 0
DWIDTH 16 0
BBX 15 20 2 1
BITMAP
0002
001E
0026
0046
0086
0106
0004
0000
0000
0606
0C06
0C06
1886
1B84
3584
6988
7188
E190
C1A0
81C0
ENDCHAR
STARTCHAR 0176
ENCODING 374
SWIDTH 576 0
DWIDTH 30 0
BBX 48 53 -5 -15
BITMAP
000000000200
000000000600
000000001E00
000000002600
000000004600
000000008600
000000000407
000000000009
000000000011
000007800022
000018C00022
000020C00044
000040C00088
000080C00098
000101800110
000201800320
000401800240
000003000680
000007000500
000006000E00
000006001C00
00000C001800
00000C003000
000018003000
000018006000
00001800E000
00003003C000
000030058000
000030198000
000030E30000
00001F030000
000000060000
000000060000
0000000C0000
000000080000
000000180000
000000100000
000000300000
000000600000
000000400000
000000C00000
000000800000
000001000000
000002000000
800004000000
800004000000
800008000000
C00030000000
C00040000000
600080000000
700300000000
3C0C00000000
0FF000000000
ENDCHAR
STARTCHAR 0177
ENCODING 375
SWIDTH 230 0
DWIDTH 12 0
BBX 57 48 -35 -26
BITMAP
0000000000006000
000000000001E000
0000000000026000
0000000000046000
0000000000086000
0000000000106700
0000000000001F80
0000000000002000
0000000000004000
0000000000008000
0000000000208000
0000000003E10000
000000000CC20000
0000000000C20000
0000000001840000
0000000001080000
0000000003080000
0000000006100000
0000000006300000
000000000C200000
000000000CC00000
0000000003400000
0000000000800000
0000000001800000
0000000001000000
0000000002000000
0000000002000000
0000000004000000
0000000008000000
0000000008000000
0000000010000000
0000000020000000
0000000040000000
0000000080000000
0000000080000000
0000000100000000
8000000200000000
8000000400000000
8000000800000000
8000001000000000
8000002000000000
C000004000000000
4000018000000000
6000020000000000
30000C0000000000
1C00300000000000
0F81C00000000000
03FE000000000000
ENDCHAR
STARTCHAR 0178
ENCODING 376
SWIDTH 576 0
DWIDTH 30 0
BBX 48 49 -5 -15
BITMAP
000000004400
00000000CC00
000000008800
00000000000F
000000000011
000007800013
000018C00022
000020C00046
000040C00044
000080C00088
000101800110
000201800320
000401800240
000003000680
000007000D00
000006000E00
000006001C00
00000C001800
00000C003000
000018007000
000018006000
00001801C000
00003002C000
0000300D8000
000030338000
000030C30000
00001F070000
000000060000
0000000E0000
0000000C0000
000000180000
000000180000
000000300000
000000300000
000000600000
000000400000
000000800000
000001800000
000001000000
000002000000
800004000000
800008000000
800010000000
C00020000000
C00040000000
600080000000
700300000000
3C0C00000000
0FF000000000
ENDCHAR
STARTCHAR 0179
ENCODING 377
SWIDTH 557 0
DWIDTH 29 0
BBX 33 47 0 -9
BITMAP
0000004000
0000008000
0000010000
0000060000
0000080000
0000100000
0000000000
0000000000
0000000000
003FFF0000
001FF0C000
001F002000
0000002000
0000002000
0000002000
0000004000
0000008000
0000008000
0000010000
0000020000
0000040000
0000FC0000
0007130000
000C610000
0018818000
003300C000
003C00C180
000000C600
000000D800
000000E000
000007C000
000039C000
0000C18000
0007038000
0018030000
0060060000
01800E0000
06000C0000
0800180000
3000300000
6000600000
4000C00000
8003000000
8006000000
8018000000
40E0000000
3F00000000
ENDCHAR
STARTCHAR 017A
ENCODING 378
SWIDTH 230 0
DWIDTH 12 0
BBX 32 36 -16 -15
BITMAP
00000003
00000004
00000018
00000020
00000040
00000180
00000000
00000000
00000808
00000810
00001C20
00000FC0
00000080
00000300
00000400
00001F08
000001B0
000001C0
00000780
00001B00
0000E300
00030600
000C0600
00300C00
00C01800
03001000
04003000
08006000
3000C000
60018000
40020000
80040000
80180000
80600000
C1800000
7E000000
ENDCHAR
STARTCHAR 017B
ENCODING 379
SWIDTH 557 0
DWIDTH 29 0
BBX 33 44 0 -9
BITMAP
0000300000
0000300000
0000000000
0000000000
0000000000
0000000000
0000000000
003FFFC000
001F006000
0000002000
0000002000
0000002000
0000004000
0000008000
0000010000
0000020000
0000040000
0000080000
0001F80000
0006260000
0018430000
0011818000
0032008000
003C00C180
000000C600
000000D800
000000E000
000007C000
000039C000
0000C18000
0007038000
0018030000
0060060000
01800E0000
06000C0000
0800180000
3000300000
6000600000
4000C00000
8003000000
8006000000
8018000000
40E0000000
3F00000000
ENDCHAR
STARTCHAR 017C
ENCODING 380
SWIDTH 230 0
DWIDTH 12 0
BBX 29 34 -16 -16
BITMAP
00000060
00000060
00000000
00000000
00000000
00000000
00000808
00000810
00001C20
00000FC0
00000180
00000200
00000400
00001F08
000001B0
000001C0
00000780
00001B00
0000E300
00030600
000C0600
00300C00
00C01800
03001000
04003000
08006000
3000C000
60018000
40020000
80040000
80180000
80600000
C1800000
7E000000
ENDCHAR
STARTCHAR 017D
ENCODING 381
SWIDTH 557 0
DWIDTH 29 0
BBX 33 47 0 -10
BITMAP
0000100000
0000308000
0000310000
0000360000
0000380000
0000300000
0000200000
0000000000
0000000000
003FFF0000
001FF0C000
001F002000
0000002000
0000002000
0000002000
0000004000
0000008000
0000008000
0000010000
0000020000
0000040000
0001FC0000
0006330000
0008618000
0011818000
003300C000
003C00C180
000000C600
000000D800
000000E000
000007C000
000039C000
0000C18000
0007038000
0018030000
0060060000
01800E0000
06000C0000
0800180000
3000300000
6000600000
4000C00000
8003000000
8006000000
8018000000
40E0000000
3F00000000
ENDCHAR
STARTCHAR 017E
ENCODING 382
SWIDTH 230 0
DWIDTH 12 0
BBX 30 37 -16 -16
BITMAP
00000080
00000184
00000188
00000190
000000A0
000000C0
00000080
00000000
00000000
00000810
00000810
00001C60
00000F80
00000100
00000200
00000400
00001F08
000001B0
000001C0
00000780
00001B00
0000E300
00030600
000C0600
00300C00
00C01800
03001000
04003000
08006000
3000C000
60018000
40020000
80040000
80180000
80600000
C1800000
7E000000
ENDCHAR
STARTCHAR 0192
ENCODING 402
SWIDTH 365 0
DWIDTH 19 0
BBX 30 29 -5 -7
BITMAP
0000001C
0000006C
00000080
00000100
00000200
00000400
00000400
00000800
00001800
00001000
00003000
00006000
0007FE00
0000C000
00008000
00018000
00030000
00030000
00060000
00040000
000C0000
00180000
00100000
00300000
00200000
00400000
40800000
C1000000
7E000000
ENDCHAR
STARTCHAR 0218
ENCODING 536
SWIDTH 576 0
DWIDTH 30 0
BBX 31 42 1 -14
BITMAP
000001E0
00000FFC
0000100E
00006006
00008002
00008002
00010002
00010000
00010000
00010000
00018000
0001C000
0001E000
0000F000
00007C00
00003E00
00000F80
000007C0
020001C0
040000C0
04000060
08000060
08000040
10000040
30000040
30000040
50000080
50000100
58000100
9C000600
0E001800
07FBE000
03FF0000
00000000
00000000
00180000
00180000
00180000
00180000
00100000
00200000
00400000
ENDCHAR
STARTCHAR 0219
ENCODING 537
SWIDTH 211 0
DWIDTH 11 0
BBX 14 25 -2 -11
BITMAP
000C
0008
0018
0038
0058
0090
0110
0230
0430
0820
1020
2060
C040
C080
C180
E300
7C00
0400
0600
0600
0400
0400
0800
1000
2000
ENDCHAR
STARTCHAR 021A
ENCODING 538
SWIDTH 557 0
DWIDTH 29 0
BBX 52 45 1 -12
BITMAP
00000000080030
00000000100030
00000000100020
00001FF02000C0
0000FFFF200100
0003FFFFFFFE00
0007E000800000
000F0000800000
001C0001000000
00380001000000
00300002000000
00600002000000
00400004000000
00400004000000
00800008000000
00800008000000
00800010000000
00000010000000
00000020000000
00000040000000
00000040000000
00000080000000
00000080000000
20000100000000
40000200000000
40000200000000
40000400000000
C0000800000000
C0001000000000
E0002000000000
E0004000000000
78008000000000
7E030000000000
3FFC0000000000
0FF00000000000
00000000000000
00000000000000
00000000000000
00600000000000
00600000000000
00400000000000
00400000000000
00800000000000
00800000000000
01000000000000
ENDCHAR
STARTCHAR 021B
ENCODING 539
SWIDTH 211 0
DWIDTH 11 0
BBX 19 26 1 -9
BITMAP
003000
002000
006000
00C000
008000
018000
1FFFE0
030000
048000
0C8000
088000
188000
308000
310000
620000
640000
380000
000000
000000
200000
200000
200000
200000
200000
400000
800000
ENDCHAR
STARTCHAR 02C6
ENCODING 710
SWIDTH 230 0
DWIDTH 12 0
BBX 7 7 3 14
BITMAP
02
06
1E
26
46
86
04
ENDCHAR
STARTCHAR 02C7
ENCODING 711
SWIDTH 230 0
DWIDTH 12 0
BBX 7 7 3 14
BITMAP
42
C4
C8
D0
E0
C0
80
ENDCHAR
STARTCHAR 02C9
ENCODING 713
SWIDTH 230 0
DWIDTH 12 0
BBX 5 1 4 16
BITMAP
F8
ENDCHAR
STARTCHAR 02D8
ENCODING 728
SWIDTH 230 0
DWIDTH 12 0
BBX 7 4 3 15
BITMAP
40
C2
E4
78
ENDCHAR
STARTCHAR 02D9
ENCODING 729
SWIDTH 230 0
DWIDTH 12 0
BBX 2 2 5 15
BITMAP
C0
C0
ENDCHAR
STARTCHAR 02DA
ENCODING 730
SWIDTH 269 0
DWIDTH 14 0
BBX 6 6 3 15
BITMAP
38
44
84
84
88
50
ENDCHAR
STARTCHAR 02DB
ENCODING 731
SWIDTH 230 0
DWIDTH 12 0
BBX 5 6 3 -4
BITMAP
08
30
40
C0
C0
70
ENDCHAR
STARTCHAR 02DC
ENCODING 732
SWIDTH 230 0
DWIDTH 12 0
BBX 12 4 0 15
BITMAP
1C10
2610
4320
81C0
ENDCHAR
STARTCHAR 02DD
ENCODING 733
SWIDTH 230 0
DWIDTH 12 0
BBX 7 5 2 13
BITMAP
12
24
28
50
80
ENDCHAR
STARTCHAR 0394
ENCODING 916
SWIDTH 596 0
DWIDTH 31 0
BBX 23 23 5 -1
BITMAP
000002
000006
00000E
000016
000024
00004C
00008C
00010C
00020C
00040C
00080C
001008
002018
004018
008018
010018
020018
040018
080018
100010
200030
7FFC30
FFFFF0
ENDCHAR
STARTCHAR 03A9
ENCODING 937
SWIDTH 596 0
DWIDTH 31 0
BBX 27 24 4 -2
BITMAP
0003F800
001C0700
00600180
008000C0
010000E0
02000060
06000060
0C000060
0C000060
08000060
18000060
180000C0
180000C0
180000C0
18000180
18000100
18000300
08000600
08000800
04001000
04006100
3F018200
7F07FE00
80000000
ENDCHAR
STARTCHAR 03BC
ENCODING 956
SWIDTH 403 0
DWIDTH 21 0
BBX 19 24 0 -12
BITMAP
001060
0020C0
006080
004180
00C100
008300
018600
030E20
051440
072480
0BC700
080000
100000
100000
200000
200000
400000
400000
400000
800000
800000
800000
800000
400000
ENDCHAR
STARTCHAR 03C0
ENCODING 960
SWIDTH 403 0
DWIDTH 21 0
BBX 16 11 4 1
BITMAP
07FF
0D04
1108
1110
0210
0420
0420
0860
0862
F044
6078
ENDCHAR
STARTCHAR 2013
ENCODING 8211
SWIDTH 500 0
DWIDTH 26 0
BBX 16 1 8 7
BITMAP
FFFF
ENDCHAR
STARTCHAR 2014
ENCODING 8212
SWIDTH 1000 0
DWIDTH 52 0
BBX 28 1 10 7
BITMAP
FFFFFFF0
ENDCHAR
STARTCHAR 2018
ENCODING 8216
SWIDTH 211 0
DWIDTH 11 0
BBX 6 12 8 11
BITMAP
04
08
10
20
20
40
40
40
C0
C0
E0
40
ENDCHAR
STARTCHAR 2019
ENCODING 8217
SWIDTH 211 0
DWIDTH 11 0
BBX 6 11 8 12
BITMAP
18
0C
0C
08
08
08
10
10
20
40
80
ENDCHAR
STARTCHAR 201A
ENCODING 8218
SWIDTH 211 0
DWIDTH 11 0
BBX 6 12 2 -5
BITMAP
08
1C
0C
0C
08
08
10
10
20
40
40
80
ENDCHAR
STARTCHAR 201C
ENCODING 8220
SWIDTH 269 0
DWIDTH 14 0
BBX 10 12 8 11
BITMAP
0040
1880
2100
2200
4400
4400
8400
8800
8800
8C00
CC00
8C00
ENDCHAR
STARTCHAR 201D
ENCODING 8221
SWIDTH 269 0
DWIDTH 14 0
BBX 10 12 7 12
BITMAP
0CC0
0CC0
0440
0440
0440
0880
0880
1100
2100
2200
4400
8000
ENDCHAR
STARTCHAR 201E
ENCODING 8222
SWIDTH 288 0
DWIDTH 15 0
BBX 10 12 2 -5
BITMAP
08C0
1CC0
0CC0
0CC0
0880
0880
1080
1100
2200
4200
4400
8800
ENDCHAR
STARTCHAR 2020
ENCODING 8224
SWIDTH 269 0
DWIDTH 14 0
BBX 14 25 1 -2
BITMAP
0004
000C
000C
0018
0010
0030
0020
0040
0040
3FFC
389C
0100
0100
0200
0400
0400
0800
1800
1800
3000
7000
6000
E000
C000
C000
ENDCHAR
STARTCHAR 2021
ENCODING 8225
SWIDTH 269 0
DWIDTH 14 0
BBX 15 25 3 -2
BITMAP
0006
0006
000C
0008
0018
0010
0020
0020
0040
1F7E
188E
0100
0100
0200
FFF8
C438
0400
0800
1800
1000
3000
7000
E000
E000
C000
ENDCHAR
STARTCHAR 2022
ENCODING 8226
SWIDTH 500 0
DWIDTH 26 0
BBX 8 8 13 8
BITMAP
3E
7F
FF
FF
FF
7F
7E
18
ENDCHAR
STARTCHAR 2026
ENCODING 8230
SWIDTH 576 0
DWIDTH 30 0
BBX 21 3 5 0
BITMAP
E07038
E06038
C0E030
ENDCHAR
STARTCHAR 2030
ENCODING 8240
SWIDTH 807 0
DWIDTH 42 0
BBX 36 27 5 -5
BITMAP
0023F00000
003FB80000
0040080000
008C080000
010C100000
0208100000
0208200000
0610400000
0610800000
0620800000
06C1000000
0102000000
0004040000
00080FFFF0
0010261180
0020C62180
0023862100
0044844100
0099044100
012108C200
02C308C400
050310C800
0E01E07000
1800000000
3000000000
6000000000
8000000000
ENDCHAR
STARTCHAR 2039
ENCODING 8249
SWIDTH 269 0
DWIDTH 14 0
BBX 9 13 6 -1
BITMAP
0080
0100
0600
0800
1000
2000
4000
C000
4000
6000
6000
2000
3000
ENDCHAR
STARTCHAR 203A
ENCODING 8250
SWIDTH 269 0
DWIDTH 14 0
BBX 8 13 5 -2
BITMAP
08
18
0C
0E
06
03
03
02
04
18
20
40
80
ENDCHAR
STARTCHAR 2044
ENCODING 8260
SWIDTH 96 0
DWIDTH 5 0
BBX 25 27 -7 -3
BITMAP
00000080
00000100
00000200
00000400
00000800
00001000
00002000
00002000
00004000
00008000
00010000
00020000
00040000
00080000
00100000
00200000
00400000
00800000
01000000
02000000
04000000
04000000
08000000
10000000
20000000
40000000
80000000
ENDCHAR
STARTCHAR 20AC
ENCODING 8364
SWIDTH 480 0
DWIDTH 25 0
BBX 26 24 4 -1
BITMAP
0000FE00
00030180
000C00C0
001800C0
003000C0
00600000
00C00000
01800000
03800000
7FFFC000
07000000
06000000
FFFF0000
0C000000
1C000000
1C000000
1C000000
18000000
18001000
18002000
1C004000
0E018000
07060000
00F80000
ENDCHAR
STARTCHAR 2113
ENCODING 8467
SWIDTH 211 0
DWIDTH 11 0
BBX 24 34 3 0
BITMAP
00000F
000017
000026
0000C6
000184
000104
000308
000608
000C10
000C20
001840
001040
003080
006100
006200
00C400
008800
019000
016000
028000
070000
040000
0C0000
080000
180000
300000
200000
601000
602000
C02000
C0C000
C10000
C20000
FC0000
ENDCHAR
STARTCHAR 2122
ENCODING 8482
SWIDTH 500 0
DWIDTH 26 0
BBX 20 10 8 12
BITMAP
7F8810
081830
182850
104890
3099A0
211920
611220
421420
C41860
841060
ENDCHAR
STARTCHAR 2126
ENCODING 8486
SWIDTH 596 0
DWIDTH 31 0
BBX 27 24 4 -2
BITMAP
0003F800
001C0700
00600180
008000C0
010000E0
02000060
06000060
0C000060
0C000060
08000060
18000060
180000C0
180000C0
180000C0
18000180
18000100
18000300
08000600
08000800
04001000
04006100
3F018200
7F07FE00
80000000
ENDCHAR
STARTCHAR 212E
ENCODING 8494
SWIDTH 596 0
DWIDTH 31 0
BBX 27 28 2 0
BITMAP
00FFC000
03F1F000
07803C00
0E000E00
1C000700
3C000700
3C000780
7C000780
7C0007C0
7C0007C0
7C0007C0
FC0007C0
FFFFFFE0
FFFFFFE0
FC000000
FC000000
FC000000
7C000000
7C000000
7C000000
3C000100
3C000380
1C000700
0E000E00
07001C00
03C07800
00FFF000
003F8000
ENDCHAR
STARTCHAR 2202
ENCODING 8706
SWIDTH 403 0
DWIDTH 21 0
BBX 14 24 6 -1
BITMAP
0180
0660
0810
0818
0808
0008
000C
000C
000C
0008
0008
0008
0388
0410
1810
3010
2020
6020
C040
C080
C100
C200
C400
3800
ENDCHAR
STARTCHAR 2206
ENCODING 8710
SWIDTH 596 0
DWIDTH 31 0
BBX 23 23 5 -1
BITMAP
000002
000006
00000E
000016
000024
00004C
00008C
00010C
00020C
00040C
00080C
001008
002018
004018
008018
010018
020018
040018
080018
100010
200030
7FFC30
FFFFF0
ENDCHAR
STARTCHAR 220F
ENCODING 8719
SWIDTH 596 0
DWIDTH 31 0
BBX 34 28 2 -5
BITMAP
0007FFFFC0
0001800300
0003000300
0003000600
0006000400
0006000C00
000C001800
000C001800
0018003000
0010003000
0030006000
0060006000
006000C000
00C0008000
00C0018000
0180030000
0180030000
0300060000
0700060000
06000C0000
0C000C0000
0C00180000
1800380000
3800300000
3000700000
7000600000
6000F40000
8000480000
ENDCHAR
STARTCHAR 2211
ENCODING 8721
SWIDTH 596 0
DWIDTH 31 0
BBX 24 27 3 -5
BITMAP
007FFF
007001
003001
003001
003800
001800
001800
001C00
000C00
000C00
000E00
000600
000600
000400
000800
001000
002000
004000
008000
010000
020000
040000
080000
100004
200008
7FFFF8
FFFFF0
ENDCHAR
STARTCHAR 2212
ENCODING 8722
SWIDTH 403 0
DWIDTH 21 0
BBX 12 1 7 6
BITMAP
FFF0
ENDCHAR
STARTCHAR 2215
ENCODING 8725
SWIDTH 96 0
DWIDTH 5 0
BBX 25 27 -7 -3
BITMAP
00000080
00000100
00000200
00000400
00000800
00001000
00002000
00002000
00004000
00008000
00010000
00020000
00040000
00080000
00100000
00200000
00400000
00800000
01000000
02000000
04000000
04000000
08000000
10000000
20000000
40000000
80000000
ENDCHAR
STARTCHAR 2219
ENCODING 8729
SWIDTH 211 0
DWIDTH 11 0
BBX 3 3 7 9
BITMAP
60
E0
C0
ENDCHAR
STARTCHAR 221A
ENCODING 8730
SWIDTH 500 0
DWIDTH 26 0
BBX 15 21 7 0
BITMAP
0006
0004
0008
0010
0030
0020
0040
0040
0080
0100
0100
0200
0200
0400
4800
C800
5000
7000
6000
6000
2000
ENDCHAR
STARTCHAR 221E
ENCODING 8734
SWIDTH 500 0
DWIDTH 26 0
BBX 19 8 3 2
BITMAP
1F0780
209840
40B020
406020
80C040
C12040
461180
380E00
ENDCHAR
STARTCHAR 222B
ENCODING 8747
SWIDTH 403 0
DWIDTH 21 0
BBX 22 28 3 -4
BITMAP
00003C
00004C
000080
000080
000100
000300
000200
000600
000400
000C00
000800
001800
001000
003000
002000
006000
004000
004000
008000
008000
010000
010000
020000
020000
040000
080000
F00000
E00000
ENDCHAR
STARTCHAR 2248
ENCODING 8776
SWIDTH 403 0
DWIDTH 21 0
BBX 13 5 6 3
BITMAP
3FF8
0000
0000
0000
FFF0
ENDCHAR
STARTCHAR 2260
ENCODING 8800
SWIDTH 403 0
DWIDTH 21 0
BBX 13 11 6 1
BITMAP
0010
0020
0040
3FF8
0100
0200
0400
FFF0
1000
2000
C000
ENDCHAR
STARTCHAR 2264
ENCODING 8804
SWIDTH 403 0
DWIDTH 21 0
BBX 15 10 5 0
BITMAP
0006
0078
0780
3800
1C00
0700
00C0
0030
0000
FFF0
ENDCHAR
STARTCHAR 2265
ENCODING 8805
SWIDTH 403 0
DWIDTH 21 0
BBX 14 11 6 -1
BITMAP
1000
1E00
03C0
0078
001C
00E0
0700
3800
C000
0000
FFE0
ENDCHAR
STARTCHAR 25CA
ENCODING 9674
SWIDTH 403 0
DWIDTH 21 0
BBX 11 13 5 0
BITMAP
0080
0180
06C0
0C40
1040
6060
C060
C0C0
4100
6600
6C00
3800
2000
ENDCHAR
STARTCHAR F8FF
ENCODING 63743
SWIDTH 519 0
DWIDTH 27 0
BBX 26 37 0 0
BITMAP
FFFFFFC0
FFFFFFC0
FFFFFFC0
E00000C0
E00000C0
E00000C0
E03F00C0
E0FFC0C0
E0F3C0C0
E1C0E0C0
E1C0E0C0
E18060C0
E38070C0
E00060C0
E000E0C0
E000E0C0
E001C0C0
E003C0C0
E00700C0
E00E00C0
E00E00C0
E00C00C0
E01C00C0
E01C00C0
E01C00C0
E00000C0
E00000C0
E00000C0
E01C00C0
E01C00C0
E01C00C0
E00000C0
E00000C0
E00000C0
FFFFFFC0
FFFFFFC0
FFFFFFC0
ENDCHAR
STARTCHAR FB01
ENCODING 64257
SWIDTH 346 0
DWIDTH 18 0
BBX 40 40 -16 -15
BITMAP
0000000006
000000003F
0000000040
0000000180
0000000200
0000000200
0000000400
0000000808
0000001818
0000001000
0000003000
0000006000
0000004000
000000C000
00001FFFC0
0000018080
0000030100
0000030300
0000060202
0000060604
00000C0408
00000C0C10
0000180820
00001018C0
0000301F00
0000200000
0000600000
0000400000
0000C00000
0000800000
0001000000
0003000000
0002000000
8004000000
8004000000
8008000000
8010000000
C020000000
40C0000000
3F00000000
ENDCHAR
STARTCHAR FB02
ENCODING 64258
SWIDTH 384 0
DWIDTH 20 0
BBX 68 59 -31 -25
BITMAP
000000000000000060
0000000000000001B0
000000000000000220
000000000000000420
000000000000000820
000000000000001040
000000000000003040
000000000000006080
0000000000001E4080
000000000000668100
000000000000818200
000000000001010400
000000000002030400
000000000004060800
000000000008041000
0000000000100C2000
000000000010084000
000000000020188000
000000000060110000
000000000040260000
0000000000C0780000
000000000180400000
00000000010FC00000
00000000FFF0800000
000000000201000000
000000000603000000
000000000C02000000
000000000C06000000
000000001804000000
00000000180C060000
00000000300C080000
000000003018100000
000000006018200000
00000000C01CC00000
00000000C007000000
000000018000000000
000000018000000000
000000030000000000
000000030000000000
000000060000000000
000000040000000000
0000000C0000000000
000000080000000000
000000100000000000
000000100000000000
000000200000000000
000000400000000000
000000800000000000
800000800000000000
800001000000000000
800002000000000000
800004000000000000
800008000000000000
C00010000000000000
400020000000000000
6000C0000000000000
380700000000000000
1FFC00000000000000
03C000000000000000
ENDCHAR
ENDFONT
